<mxfile host="Electron" modified="2023-06-23T09:38:18.513Z" agent="Mozilla/5.0 (X11; Linux x86_64) AppleWebKit/537.36 (KHTML, like Gecko) draw.io/21.5.0 Chrome/112.0.5615.204 Electron/24.5.1 Safari/537.36" etag="tj5bddY_u75ysDyME46W" version="21.5.0" type="device">
  <diagram name="Page-1" id="5u3yr9eIqpRIxHXyK-jf">
    <mxGraphModel dx="2000" dy="1203" grid="1" gridSize="10" guides="1" tooltips="1" connect="1" arrows="1" fold="1" page="1" pageScale="1" pageWidth="827" pageHeight="1169" math="0" shadow="0">
      <root>
        <mxCell id="0" />
        <mxCell id="1" parent="0" />
        <mxCell id="dVX6cVtJZ1NgR8-LR__A-1" value="" style="shape=image;verticalLabelPosition=bottom;labelBackgroundColor=default;verticalAlign=top;aspect=fixed;imageAspect=0;image=data:image/png,iVBORw0KGgoAAAANSUhEUgAABN0AAALoCAYAAABMNYOvAAAABHNCSVQICAgIfAhkiAAAABl0RVh0U29mdHdhcmUAZ25vbWUtc2NyZWVuc2hvdO8Dvz4AAAAodEVYdENyZWF0aW9uIFRpbWUAdmVuLiAyMyBqdWluIDIwMjMgMTE6MjE6MTYWiqKcAAAgAElEQVR4nOzdeVxU9f7H8dc5s7Aju7KDoOCKuylo7laWWmplmZW2p+1ldfvdtHvrppZZZqvaTculrMRblmJZ7kvuG4gbm+woAgMMM3N+fyCEOyoDap/n48EDZubMnA8Ds5z3fL7fr+Lt7a0hhBBCCCGEEEIIIYSoM0p2drZms9mwWq3YbDaqfi4uLiYtLQ1fXz8iIiIxGh3QNA2tgSI67dSOa37XGqoYIa5TiqKgKEr1zzW/CyGEEEIIIYQQf2dVh8dmczmJiYlkZmYRHByMs7MzOp0OVVVPfVX+rKSmpmqaplWHbhaLhdTUVFxdXWnVqg2a1vAH3FUBm6Zp1cFg5WlbQ5cmxHVFUVQURal+oqgK4SR4E0IIIYQQQgghTqcoGjt37qSw8CRBQcHo9ZVhm06nqzy+TklJ0axWK1arFbPZTHJyMp07d8XFxa2ha69WFbRZLBasVmv196rwDZCuNyEuU82OtqonB71eX/29ZvgmhBBCCCGEEEKI0xUVFbJ+/YZTI0UN6HS6yuDt8OHDmtVqpaKiggMHDtCjx43odIaGrvc0FosFi6UCs7mC8vJyzOZyzOaK6uANJHQT4nJVhWlVgZvRaMBodMDBwQGj0YBeb5DgTQghhBBCCCGEuICKinJ++20VkZHNMBhONbJUdY6lpqbSqVOXqy5wg8rQzWyuwGQqwcXFhbCw4FOteg1dmRDXF00Dq9VKVlYOJSUlgAugYDAYJHATQgghhBBCCCHOw2BwoHv3bmzbtp3g4BAAVKvVSlFREW5ubri6ujdwiedmtVopLy/HxcWFwEB/9HoJ3ISwB0UBvV5HYKA/Li4ulJeXnzWUWwghhBBCCCGEEGdzc2uEh0cjSkqKsVptlaFbeno6rVq1bejazquy062cJk38JGwToh4oCjRp4ofZXI7FYqkexi2EEEIIIYQQQojzi4lpR0ZGOlarFdVkMuHn1xi4etOsykUeKtDpdA1dihB/GzqdrnruxKrVg4UQQgghhBBCCHEhCo0bN6a01IRaUFBA8+ZRDV3RBdlsNqxWq3S5CVGPFIUaQ0tleKkQQgghhBBCCFEbLVu24vjx46gnT57EaHRo6HouSNM0Gd4mRAOQudyEEEIIIYQQQohL4+DgwMmTJ1HLysq42o+p5aBfiIYjjz8hhBBCCCGEEKL2NA3KyspQzWYzyjUwblMO/IWof/K4E0IIIYQQQgghLo2iKFRUmFEtFktD1yKEEEIIIYQQQgghxHXDYrGgSieLEEIIIYQQQgghhBB1R9M0VFmgQAghhBBCCCGEEEKIumOz2SR0E0IIIYQQQgghhBCiLtlsNtRFi75t6DrEdcHK0V8+4I3Zmylp6FLEVS09PaOhSxBCCCGEEEIIIexONeqk063haJw4uJ5fNqRgbuhSrpiVxKUf8XnCYcplmkBxAf/5z7skJx9s6DKEEEIIIYQQQlwFmkU2r9VXXeveLa5Otjkfm01DHTz05su+gavN9w+2IKDTRDadI8Eyb55El4AYxi0vrr+CtFzm3hmOn2/gGV+h3PTBIayU88dbo3h45hZK7bL/48Q/3oFQ/yAa+wUREBhFqy63ct8rc1ifdRWtWmtL56fX7qFXhzaEBTYlqvNwXpifiKmh67oG9e7Vnz2795x1/p7de+jdq38DVCSEEEIIIYQQDWPVqtWUll78aLu0tJRVq1bXQ0XifJIPHrjglz2s37D2gqFa925xrN+w9rJvX9M0VBTny76Bq02/YX1xz1jGD5vLz7jEzNYlP5PhcxPDe7rWe13Gbs/x7Y8/8L/qr+94d0QgOrvv2UJh/nGsHZ9m0U/xLPnmU6aM74Hy65vcOfj/WFV4lbSkqZ74t+7NuHe+IP6nebx2Qx4LX3yBOQetDV3ZNWfGjPcYPXrMacHbnt17GD16DDNmvNeAlQkhhBBCCCFE/dqwYTPvvTfzgsFbaWkp7703kw0bNtdjZeJqcb7g7UoDtyrqFd/CVcS99+0M9Mrm5x82UlbzgvItLFmWSZNbb6e7E2DNZvX0J7ipfTRBgdF0GPgkH6zJoTLisXFs9giCop5jZXXHXAWrnm1L8B1fkmkDtGL2zHuR2zq1JMg/jKat+/D4wjTON1BX8WxKp65d6Fr91YlW/o5/lbf8aZr5BuLnG0ybF9dUDjWtSCdhyqPc3KUNYcEt6XTrc/x3RxEal7F/70g6d+5Il9heDLpvArM+epDgtO9ZsLoU0Di58yteHNGXdhERhLXqy31vJpBecerKxVv46JHh9GzXkpCAMMJa382nSVbQitj91cvc3qU1IYHNaN3zQT7ZXiPsNK/jpTbh3PJRSnVdttTPuS2oIxPWVpxRoQsd7n6Y4X06EdMulpGP3EJTcjiWc5WEgteQ1m1aM3funOrgrSpwmzt3Dq3btG7o8oQQQgghhBCi3jz77JMA5w3eqgK3mtuKv58zg7e6CtwA9Jp2HQUbLnHcOdifxUuXsvZfN9LvVBNf2fql/Jwbzl13dsJIGdveHsWoWQp3/OMDXovWSFw0lbfuHU1ZfDwvtTdcdDfWxM956uWV+L/4AfF9G2PLPcTJgMaXnWAaY19myX/644qC3jMYAyY2vXkfD/0QxLh/z+Zt/xP8Mf0fvHb/GwSvnUqv9Cvbv87FBUelgrIyK7a0RTxx1785dvNrTH+lDfoDi5j06hM85vkL8U9EoBYn8utPu/B8/D3+3dcHpciGf4hC9g8vcPeLG4l86BU+7x+C7egavpi2liv+b7JmsfyzJWS1HcXITvorvbW/pZrBG3BVBW5VL3Tp6cdo1iyygasRQgghhBBCXM+cnJx49tknee+9mbz33kyeffZJnJycgLMDt6rz/85qO2+avYZ7NqSawVtdBW6apnGdpRoOdB15O02//JrvVxXRb5AbUMLq71dQ0HIMI9ro0U4sY+YXB2n5bALvPhSJDoi7IZzixIF89NFKHvv84nPc2fLzKMCDG2O707GNM9DmgtuXLxtHuO+46tOq770s3DGFXsbK04qrP81aRNPo1OXa8e/5eG4mvSZ/xwu3eaEAbSan81uX91i66U16Ol7a/rFZKC8vRy0/SVbyRha++SWJjl154AYHds/9lN99HuTHKaNoZwA6RPN/W5dzz48rSXssglAAxYHw7gPo2e1UIGk7ykezVmAe8A6z3xiGjwL07IqycS4bCi56912gzkx+evZuXjwwiNnzx9HGeAW3JRpccvJBpk//6JyXLV68hMWLl5x23vDhQ+ndu2d9lCaEEEIIIYT4mzhX8AZI4HYO12OY1tCur043QN/qTka2+5Rp3yZQcMsdeBb+xrfLi+k64XYidWA5uIu9pQHc1D3srznV9E3pfoM/76zcySHLzTS+yD4MXe5jXI+fmTi8LzvvuJcHxozkljbe500wjXEv88O/+lD1MFb0noReoKHOcmgv+00lpD3TkeBnqs61Ya1QccwuQj/i0vZf/sszRAeduiHFgGd0f16c8yajgkx8u/coFQc/4tawT/66gs2CNSCTHCuVodtZBR5k3wGNZoM64qWc//e4VEW/vMWLK5rxxh+v0MP7uhr5XK9qDikFGmx4abNmkTzzzBOnnZeefozFi5fQtWtnunXrfNplQUGB9VmeEEIIIYQQ4m/izOCtigRuokrNIaV1Nbz0VKdbHaYmVwNdGMNH92DahG/437HB3PTHN/ym9OHd2wNRASvaRYZAKqg6FSwWzru+pzGahxasoe8fi5nz8Wc83f8TPn/5a759JgbHc2yuuAfRsnUrXM6xLwU4qyBNA9WPO97/mqdjakZpKi6NPVCM3pe0f2P3F1j4z964Ojjj2SSIIB/nysBRO46mgaHTs3w/7VY8a/wrKEYPgs4bDCooCthstvPfl4qKTgfWiopaDjnVMBuCiHugM339JHC7XOeaw61qqGlDBW9nnl68eAndunWW4aVCCCGEEEKIelMzeAMJ3MRfzgzZqoaaykIK56TgN+g+bnHbxNyvf2H+l+tpNGQUA0+1ZOkj29LK8Rgb16dQvTam5TAbNmXi1KotEXqFRr4+OJYd5lD6BVbPVFwI73U//1q0gkWP+rB99gK2mM+/+flqdXR2QDt5gqIaqyDoI1oSZcxj72Eboc0iaVb91ZQAd90l71/xCKN9x3a0a92c0KrADUBxI6plMFryfo75RNTYTySRoT7nDPAqC4wipqWOpD/WVi4scS6qF37eGmkHj3LmWrLnuy+8+0/gs5f7nBb+iUszfvyzZ4VrVXO8jR//bANWJoQQQgghhBANy8nJiVdffYFXX31BAjcBnL+r7Xyrml6q6254KQBuvRh7TziDPnqewxWRjJve7a+hnR4DeHJMJLdPf5wXXF5keLTG/kVTeD+xOY++3Q93QOt2M33dn+TjFyfj/diNBDuWsjXNXN2xZT26krnrbES3DMC54hjrkgrB0wuP80SYWn4yG9dtOC3EUl2CiWkXQHTblqjxC3j36wiGBZs4WhzOiFsH8si9M7j7w8d4XP8UI7sE4mA6RuLxMO6+syPOKZe2//PT0270I8TN+wevjv4nBY/1J9rTRsHhoxji7mNguO7cV1MDGfb0CD67701GjTfx7Ih2+Kkn2JpaAa6nttFFMODmKN794C1eaF3Ona08ITWRgvP+u5Wz5c1bGbUonH/98gl3BlyHeXA9WPV7wjnPb92m9XkvE0IIIYQQQgghGlJtF3GoSxfrZrvSjrfrcCGFKnra3D+G7p+9wrbeYxkVXfPXdKLjy/OY5zyJt2aM565c8Gvdh6e/msi4DpWxmOI1iP98kcrLr83hHw98QqnijHdQU+KGhOGkgCV3Hz9+OIuJR49j1jciJKY/b7z/OK3Pc2+aN73PyKHvn3aeofULrFz5LC3uncSkbS8w7bUH+AYvmt8+kT63tCRu4gLmer/J1PmvM2ZqMbgH0PK2Vxk0oiPGS9z/haih9zLrOz1v/etz3hs/j3yzIz5NO/Jwy3vPH7qh4NnnX3z/ZRP+9e6XvHjvWxTjjFdQND16h+KgVP4NWo3/iA8K/sHUaU+xpNCKQ6PGBHeIo43v+QO16zACFkIIIYQQQgghxHk01AIOtQnTrnSIqTJt2jRtzJhHruhG7C0nJ4fjx4/TpUuHhi5FiL+VzZu34enpiZubKwaDEb3+ynP6n35aTp8+PaWdWwghhBBCCCHEdeuTTz6+XjvdhBBXq0GDBjZ0CUIIIYQQQgghhN3JxFlCCCGEEEIIIYQQQtQxCd2EEEIIIYQQQgghhKhjEroJIYQQQgghhBBCCFHHrpnQTVGUhi5BiL8dedwJIYQQQgghhBCX55oI3eTAX4iGI48/IYQQQgghhBDi0l0zoZuqXhOlCnFdUVVVQjchhBBCCCGEEOIyqNnZ2Q1dw0WpqopOp0PTGroSIf4+NA10Ot2p4E3CNyGEEEIIIYQQ4lKojRs3bugaLkqn02E0GrBarQ1dihB/G1arFaPRgE6nQ1EUCd2EEEIIIYQQQohLcE2M2dTr9RiNDmRl5Ui3mxD1QNMgKysHo9EBvV4vw7uFEEIIIYQQQohLdE0cSet0OhwcHCgpKSEjIxOLxSrhmxB2oGlgsVjJyMikpKQEBweHGkNMpdNNCCGEEEIIIYSoLX1DF1Aber0e0AAXysrKOXDgIGZzBVarFZvNBoAmKZwQl6UqTKuaO9FoNGA0OuDs7ILRaECv10vgJoQQQgghhBBCXKJrInRTVRW93gAop0IBY3XgVhW2SegmxOWpCtSqVgnW6XTo9frq71VdbhK8CSGEEEIIIYQQtXdNhG5VYYDBYKgOAjRNQ9NsDV2aENeVqlVKVVU9LWyTwE0IIYQQQgghhLg010zoVvVdUSq73SpDN+luE6Iu1QzYzvwuhBBCCCGEEEKI2tMDODk5NHQdQgghhBBCCCGEEEJcF4xG/bWxeqkQQgghhBBCCCGEENcSCd2EEEIIIYQQQgghhKhjEroJIYQQQgghhBBCCFHHromFFMT1xWbTsFgsWK2y+qwQQohrl06notfrUdVLW3BGXgeFuDpc7mNYCCGEqA2z2SKdbqJ+2Wwa5eVmOdAQQghxzbNabZSXm7HZar+aurwOCnH1uJzHsBBCCHEpJHQT9cpisTR0CUIIIUSdupTXNnkdFOLqI49LIYQQ9iKhm6hX8sm+EEKI682lvLbJ66AQVx95XAohhLAXCd2EEEIIIYQQQgghhKhjEroJIYQQQgghhBBCCFHHJHQTQgghhBBCCCGEEKKOSegmhBBCCCGEEEIIIUQd0zd0AUJcTEmJiYSEBFYmJADQr39/hg4dYrf95ebmsXDBQlJTUwEICQnh7pF34+vrY7d9CiGEaDhr164DIC4utoErEUJcb/yePUbCc77EBBsauhQyt2zmzw9nANBp3Hj8O3ept31rGihK5Q+rclXmpiv4OalM3weo4G6FfsEaT0ZYiPNRTr/O34w5JYWcGR9QvPoPSnfuBMApJgbXnjfiN/4pjKGhdt3/0dJ8Pkn/ncSiY2g1zlcAhVN/G7SzLot2C+Dx4N6EOnrZpS5N01AUBU3TWLNmNZmZmahqZQ+R1WolMDCQHj16nrbt35nJZGL27K/Yvn0n0dHNGDNmND4+9vnbXEjNv8XmNd+h5yQdejwIgM1mq/4bXs8kdBPA6Q/K9u1jGDt2FM7Ozg1dFmvXriN+STwmUwkj77kHk8lE/JIlrFu7jiFDh9T5AVJubh6TJk4kODiEIaeCvXVr1zFp4kRenzhRgjchhLjOLFkST8KKFQDk5eXZ9UOdy5Gbm8fS+HgSE5PIz8/H2dmJ9u3bM3jIEHlNEuIaUFiqUVha/6ujWsvLKS8spLzwBCczjrHri9nsWbSoMskC9ixaROu77qLtg2NxDwzAoZEHDo0aoXNwqPNaqsKzEiu8vCaL77al89lD3ThZBv35maiSZLw8YV7hKPqu92JsqJWprTRc9PYP3qoCgX379lFWVkpUVBSKopCYmIijoxMtW7as1wAn/fnnKJg3F9/xTxH6+WycYmIAKN25k+LVf7C/UwcsN91Ex3lf262Gj1J/4xAnKu94TUNBQUOj3GahwmYFwKDqMKr66stQFJJtBXyU+huTmw+v85qqwpmtW7eya9cOmjZtSr9+ffH19QUgNzeXPXv2MGfObGJi2tGxY0e7BzpJSQeYNesrpk59gzFjngRgzpyZ5/35hRf+j4cfvo+oqOZ2q6mmWbPmUVpqYsKEp1my5Cfmz/+Wp556tF72XUXTNHaunUVemRf9+g8jzFMjKMQHM/D7Hyvw1KcT3fleHIx1/7xzNbFr6FZWVo5er0Ovv7qyPYvFgsVixdGxYf64JpOJhITf2bZtB2lpGQAEBwfSoUM7+vfvhbOzM6mp6cTHL2P8+EfqpZ7Jk6cDMGHC08yfv5jJk6czYcIzDRa8bd26nYULFmAyldB/wAD69++Pi0tlLbGxsSQkJLBg/nxWJiRw98i7iY6OrpP9Lpi/gODgECa8/FL1eXFxsUx+ewoL5i/gqafHX+YtV5CbtJ0DljC6tfK7JsZ1a8Wp7E48iVfLVgQ5//VGoyxzH3uznWkWE4b73/sDpDPYyFw7lwW7g7j70X4EXAt/ZCHEqQ9xhgKQsCLhqgrdUlJSmTplCt7e3sTGxRIdHUViYhLbt21j0sSJvPjSS4SGhjR0mVfOms32X9ZREDGQPtEuyEuLEFfu4+jmFB07dv4NNI09CxeyZ+HC6rPcAgIYdySl7otRoNgCd/xq4sihY6x8MJpV2WVoq59kWeNVJGUotPK2cHvGf3nKdxazCzqQvNlGfFcbTrq6L+e00k6Fafv27UHTNLZv34aiKLi5uQHQsmXLegvcEjt3xBgaRqsDB9F5eJx2mVNMDE4xMWzy8SZm1Sq2t2lN+9177FJHUkkWCqBR2dlWZqtAr6hEuPgS6lT5YU9KaR5HTflYNBuOqgFN07CWlJFIZp3XUxWe/fzzMsrKSnn00crgqLy8nOeffwGbzcY770ylf//+9O8PCxcuJC8vl4EDb7Jr8Pb55/MoKCio9fYFBQXVIV192LFjFxMmPE1UVHOGDoXJk9+vl/3WpCgKXk4qTX1LsFqtZBernEzMJbILRLpn4KgHvb7hu4DtzW5pWHFxCTt37iY0NISgoAB77eayZGXlkJKSSkxMG1xdXep132vXbmThwsU4OjoxcGAfQkICAUhNzWD58t9ISPiNIUMGER//EyZTqd3rOT1wqwzZJkx4hsmTpzdY8DZ71mzWrVtPv359GTJ0aHXYVsXFxZmhQ4cQGxvL0vh4pkyeSmxsd8Y+NPaK952UlMiYsQ+ddX5sXCzxS+Iv/4a1crL2b2evkxddzxe62UzkZ2Rj9gjD363mi7uF4pxj5ONDiJ9zPR2M2CjYv5GN+5twS7sae9SKObh5LTsd+9BajorOYOXIis+Z9eed3PxIP66uZz0hxLls3bqd/Px8YmMru6YXLljI1q3b6dixfQNXVtnhNnXKFNq3b3/a61t0dDRDhw5h9qzZTJ0y5frowraksWX575iG9aFP3XyGJsTf3uUERfYKlxRN49VdOgo83Fk3OpqXUhrBlg+Z7bycE56d8Whl5o8Dx2ntlsG4lNfYErKM1ai8sBs+amf/LkGTqYSTJ09itVqx2Sr3d+LECXQ6HSZTCc7O9j9eTH/+OXQeHph27sSckoLTGaEbwK5dO4mJiyPi/vvJ6dGD9OefI+jdaXapx4aGikKZzUwLlwDGhvagg8fpw1q3nUhhdspq9pdk4qgasKFVDz+tS6qqsmvXLszmMu666y7mzPkvI0YMw9nZmUGDBqEooNfrKSoq4rvvvueBB+7nm2++YdeuXbRt27bO66nyzjv/qv55zpyZl/Tz30mWpSk200FsRYVEtB2I2VxOeXk5ZpuVI/l+9Kin4aVPPvkCpaW1y1ecnZ348MN36mzfdgndqgI3b2/vqy5wAwgKCqiusT6Dt7VrNzJnzjxGjhxO//69T7ssKqo5/fv3Zv78b1mwYHG91HOuwA1o0OAtJSWVdevW89KEFy/avebr68PYh8YSGxfLlMlT62SoTWlpGS4uTmed7+PjTX5+/hXd9sVoxcmsWbYJ535j8Xer8bGerYC9v/7MgaBbube+QjdbHgcPHselaQ/8azxLaCcPkZylJ6R/CNd3E7AQ4nqWm5tHfn4eKxMSiI3tXqOTujsrExJwcXHC29unQcOspfHxeHt7n/cDpbEPjeX1f77O0vj4S/jQyULeruXEL99MUnoBJpsBF88mhLXpx/BhHfCVDl0hrht6p7Pfz9rjOrWxqUDlu2yV5TdqPL23EZsO7iLOJ4yTuhA2JxykY5+mRATrMVv9cN66m3D/Axwobs4XxQr3BivEemsX38klqhoy+uuvKzl06CCKomA0GikvLwfAaDRiNpv56qt5RERE0rdvP7sNMzWnpFAwby6tDhzEnJLCoeHDiFj8XfXQ0uLiYvb/8i5713xDeJueRDzxOd7Tp1PQty9+Tz1tlzneVBTKbRaiXJowudVwXPWO7CxMY+PxQygodPOMoINHKM1dR/Di3m84UJKNg6qn7v9SUFFRwcaN6xk3bhxvvz2FjRs3MHToYHQ6HQMG9D9tuyVLlpCbm8uLL77Ahx/OpEWLFhgM9umkqjl01B7bX6olS35i6dJlp53n5OR82veqGgAGD76FoUMH2aUWgKysY6Qd2E2XngMpKuqIm5s7QHWI7Rd1F01d3dj4Wzw+QZFENm9lt1qgMu8oLTXVatuq+6uu1HnoVjNwi45uVtc3X2eio5uRmEi9BW8mk4mFCxefM3CruU1SUrJd66i5r3MFblUauuPN27v2BzrBwZVDa0ym2j2IxMXZspM5eNKNiGaN+Sv+0yg8lEyuQxgdgo0NWJ0QQly6rVu388Wc2ad1kTs5OTJk6ODq07Fxscz4YAZTJk+tPs/Z2YkHx4yt9+631NRUYuPiLrhN+w4d2LF9e61v03L4R2Z+9ivmqL7cdn8zfJyslOSkcbjcGVfpXhbiiqXkW/nfzjLG9Tn/ccXSHaV4OKv0bG7fjy/VGtP7vK5pTDoVFr2uaez88kuihgwhKT6e3ydO5MTRo2ddpy59lqJSqIOBvyvkFdto4eJCvKUPxyp8WNjtZZw1E9sOFNMq3ELzYAPlJRXYGgFGhU+OqMR6W+u8pqrwLCwsDJOphKysLJo2bcqRI0dRFIXw8DD279+Pv78/4eHhp12nruV88D6+459C5+GBk4cHEYu/49DwYTj+51VyU/5LmHMOzR30RAQfgBMH2DzxF3zuWorv+KfI+eD9Ou9209Aq59JD4dGw3rjqHfk2Ywszj/xGhWbFqtmYl76BcWF9uCuoC4+G9eKFvd9gq7xSnduwYT0dO3Zk167dbNq0CUdHRxYt+oaHHx5L1Q4VRWHRokU4OjqyYcMG9uzZS8eOHdi4cUP14gp1JTU1nYUL/2qSMZlMV8Vc6EuXLiM29gbi4roClcFRSEgQACEhQUyc+Ep16LR27SaWLl1mt9CtwmJh91dvMOieOH769X/073vbWdu4urqRlJxEu7xfWb1pCZGvfGGXWqpU3RcNQa/aiursxq6VwK1KfQZvK1aswtHR6byBG8CCBd9Vz/EG4GSnT5suFrhVaYjgrWpumvz8vFp3GKSlpZ523auZ7dgmFn/5OyfLbBhcfQmLiaV7a78aXWMWDi3/lI8B0BHebww3RQJoFO+O59PdAApOLQcxulcwpkPr+H17KvkniiizgMHZi4DIGDp3bo73qQ91zLl7Wb9uB0eyizCrDrh6taDXkBsI1JWQvPI7VucE02dYb8Idq2qwkpl8iOJG0UTWbHuwFXDwYD6O4V0J1OWzZdG37GzUl9E3NcMIYE3jj3nLyG0zgmEdvSrngji+le++2YnXwHuISv2GH4+EMmjUjQTpAMpJ/mUuqypiGXVbS5wBbJms+3opRyOGMKzxLst0a54AACAASURBVL5OKKDN8Dvp4qMCGkW74lmwxYX+o/sTbgCo4EjCXFYUduCuYe3xqPFCb03+llff+Jo/D6SQVViO6upPi7ihPPLsI/QL/eseL09JYObUz/l5cxKZ5kZExo3gudeeoGcTHWAj57fpTPp0JTuT08k3KbhHjmLGDy/SRc1m/eeTmbZgNYk5Fbg37UCkrQStuoYK1rzag0d3j+KHJeOI0lX+fTdN6suD6wezaNnztDnXPCVlR1k+810+WbKeA/kWXBpHMeyN2bzUww2l9DDLPnyHT5Zs4NAJHb7RcQwf/yKP9grEAGDezufjJ/PD/iNk5J2kXHEjuNMQ7r/Viz3/+5E1O1M4jhct+j3CxEn30kaOssXfyMqEBNq3b09sXOx5u9iio6OZ+VHlJ9BV3XDr1q5jZUJCvYduaWnphIQEX3Cb6OgolsYvrfVt5iUfIE+JYNioIfTwPPX4b9GWTjU30ko4/Ec8P67dS0pOCTqvcNr3H8bt3YNwVADrUX754AtWpRynxKLDxbcpnW65k6GdG2MAbDlb+Pbb39mfmkVBcQU6t3BuHvc0A4JUrMf3sXLJMtbtTeN4hQH3xu25/fF76FT5AkD6yhn839J8Civ0NApoQY/bRzAgyl3meBPXlDf+V8jONDOf3+951mVz15t4eO5xvn3M/isIKhcYsmWtqGB29+50e+45ek2cyJIHHrjoda7EunywVECBSWNIoyx6+7rgYD5IvhJCon4CzUjH0EIlz2Aiv4UHt3g2ZuYxUFRYl2+/ZwCbzUZERCTe3j4sXbqE7OxsLJYKNE0jKysLR0dH4uJ64unpade5wYpX/0HorDnVp51iYih7bAC28U/SbHxzHBpX/i9VRY/O1jz4tgspxlEYfl5T56GbgkKFZsHP6E5LV39MlnIWHduMTlVx1TnirneksKKUpdnbGeLfjhau/vgZ3cgxn8Sg1H1wm5GRwdChg/n66wU4Ojrg5ubGr7/+hpubG/feew+KojB37lx++20Vnp6eFBUVsXbtWu6++y7iL+E1srYWLPgWoHqBglmz5p1zgYKEhFXEx/+Ek5Mz48c/Ui/DS+Piup53oYYzQ6d16zbarY60Q3tZv24DmyrgjcduYWXCLCyqP9Et2lJclIfFoiMnfTNtvc24BYUTnrqBlLQUQoPtuzJvQ7BRh51u11rgVqW+grft23cycGCfC24zdux9jB17n132X9PkydNJS8tgwoSnLxqiOTs7c889w5k8+X0mT57OpEmv2r2+qKjKiaJruzhCYmISUVFRV7TPxMREZp96savZ4XCmF194ibEPjbnshRsUl0DadoqgkYOVwkN/smHtz+A2kt6hVZ1jOkJi76BbsA5QMLpWPUQVnJv1YVDHyvngVAc3VDRK89PJKHSjY58eNDHaKMs7wo6tvxKfW8Ydt7XFgxy2JazhqGsHbhwcjrvOzMmTCo2qwh6bhmY7oxHckkHy4VK8WkfiXTNzy0vm4HFnmsYFoFcVggJd2HY4k1xbMwJVsB3PJKvMysmsbMrwwgkoy8rkuNqEtk0c8bMFYNiXReZxG0E+KlhzOZZtwWbNJMfSkjA9aIWZZJkcCAzywdEniMbqEbKyTGg+riiYyc7MxWouITPfRngTFWx5ZGZbcI8MPGtRB1v2LtZsPk7Hl9/ljShHyrN3sPTTzxg3Mpmp30/ntiYqWsFK/jn6WdZHPMKEGf8gwLSLr9+eyrinnPlhwVgidBq5O3/lt2RfHn3rNWJ9VEpKG9FcX8bOaQ/zyOxiYh97jQ87+1GRupFvPtkMV5KV2zKJf+FeJmz0Z8S4N3k+ypWynFycm7qg2DKJf+E+JmwO5t5n3+HlECvJP33E9MdHk/nRYv7d2xPFeowda3ei3PEfPhociHp8Nwvefoc3JoZyy/jHefNxP2yH45n2nzd5vnEblr0UI0tYi7+N9h3aszQ+nqjo6Fo9h/v6+pCUlMT27dsZPKT+F1dwcnIkNTXtgrUmJiYRHFz7T24bNfbDybaHrWuT6XBLc9zPCv4tZCR8zIc/V9Bh6EhuDTGSv3MZi+d/jKXRa4xq7YSiehHV+3ZCXRvhRDFH1y7hh3lzaRT8PAOaqNjyk9m+7wThQ+9nZLgLmCw08lXRSvay6L1P2WJoz0133UyYm0ZRPgQ1UqACQMElrDuDbwjGjQL2JSxh6Wfzcf/no3RrJLGbuDaEeutIeM6X/tNyAU4L3qoCt89HezK4nX0+WK9J1Z1/BYIN06aRt38/G6ZNY+z69bW6zpXILldQbIACiqUcX2cXsnRN8DKoJJuaYjiRg4+vN/kWB/ap4RjMFZWLrFoh3x7jFU+pCtE8PDwIDQ3j+PECFEVBURT0ej0hISF4enqetq09lO7aRULKEWxHDlNcXIwx+b/099mFdXxzMj88iP+4SPReJ/gzx4cwt2K25PowKNqMTn8C9dChOq9HAaw2G15GF4w6PXmlRZRZKzAoOsqsZvr6tODR0F6nFljQoSoK3g6uZJadwGiHu0mv1+Pk5EJ2djYODo4oioqLizMZGRls376D9u3bUVxcjJOTEzqdDkdHR7Iys3BxdkZnh//ppKSDF1ygwGQy8eGHn5GYWDmCrXv3rvj4eNl9eKmTk1N1Le3bxzB27KgG68BLS9rJLf26ooSFg8VCvzZuWMuK+G3/egIdigk2ltCuuQ84eqLlFeJnVFm3eimh917uooUX11BzuiUXaXV3vLVjx26sVgvZ2dlkZ2fX6jp6vZ7Y2BvqqoTTrF27EavVcknX2blzt93qSUvLqF40oaHFxXW7rHnj4uK62aGas/n4eJOaklrr7VNTUvHx8b6ifc6eNYfo6Chi42IvuN26teuYPWsOU9+Zcln7URoF0bxpMHog0N+B46nxJB/JxhYaXNUcjcHVCy+vmnO6VX5THd3w8vKqsQjDqQv0jfAPCyZQBYJCCW5kZdHybexIb0mvQBOmUnAICSTY3xcD4ONXdX0Xmg28nzMjcnNaMkfLvYmJ9KzRXWAjJ/kQha4R9GpSWZtvSBAOe4+RkW8j0FehOCODkwYHdNkZZFW0INxQQWZ6Nvh1JcABDAHB+OsOcexYCZqPG1p+OpkVRoy2TDJybYT5q5iOpVOgD6BdEz0YAgn2gS3pmZhbN8PBkk16poqDsZhjxwrRmnjCiQwySpwICvY+9+IUqhuRN9xIbAsd0J1e3XwpueV1PvxqH7e80IKUbz7mx7Kbmf7+U/R3A4ihhW03a8b9yPLDD/DEqTtHcQyna9/udK6aEqJ4OZPmJ+M38kvef6oLjgDdOuOy9zvW/Vnb/4azWXd/xcyVFfSb+ilv3OZ9WneHdedXzPzVTN8pM3ltcOVl3bu3RE0bxNsffc/DPccSVvlL4xV1A906N0GlI+E5q1j5thM9776NXh4KdGtJ0ZplvLJpC+nWGMLsvCqYEFeLqnlf5syeQ15e3kVXKV2yJJ6l8Uu5e+Tdp80ZU186dOjA+nXrLrjv7du2XdKHTk4xwxg7qJT5Kz7g/zaE0rZzV27o3pmWjZ0qn2/K97EyIRW/ga9yz41NUIGmoY0oSHyTFZuTuKt1O4yKO+Ht2lXfZmiTYvZuXciho2XQ5NSbe9WZwBatiQqqema2kbP6ZzYWhnP7/91Pb59zPWMreEZ2pEMrDxQg0usEiW/+wq4DZXTrbP+AQoi6EhNsOC14A5i7wcS8DSY+H+3J6O71cxDsGRFB9u7dAOTu24df69YAlBcW0u2559gwbRrdnnuOpPj4065jD4pSuRKmpijkVBjQFB02Fw+OF2QTP/19dEDjAH/iHn8F55PZ5Jp0KArVX/ZSXl5OQsJy9HoDN910M3v27CY5+QA2m43IyGa0bt2GZct+wmq1MGDATTg42G9I8PDhwwH45v1n6Om2mqN5roR6HsHvAScyZyTReKwXnfzy+Dk1iJtD0lFd2qBzbwssqfNaNCqDR03TKr+UqtNgUHQszdyBpmk8EzEAVVGosJ065lYUNDv1JisKGAwGDAYdBoMOq9WA0WisDlGGDh3KgeRkysvNGPR69AYdnKq7rkVFRRIfv4zBg5XqOdRef/0txo4dTWmpiRkzPsNkKsXJyYmxY++jQ4eYOq/hXCZNepX8/DyAC3bg1YfSg3/Sf0QvThRVsGNzEpFB3ji7ufLF3K+5pVM4o+7ugynzOIcOHeOHVbsYG+mJ15E1gP1Ct4aa0y2voKLuQrfIyHCSkpJp3LgxTZr4XfwKVIZu9tKuXRssltqFbllZOWRnZxMREW63ei5Vamo6U6ZMr9NVM6r079/7rNAtKekAs2Z9RX5+Pt7e3jz00KizWlMvNDS2LkVFR7NwwYJab3++FUcvRX5+PrFxsbXqfli3bv1Ft6kVxZ1Gbgrm0lKs1F3bqUNQGE10yeTmnEQLCaJNxwDSNv7EwpymRLVoSYtmAbidd2flpCUfxezXiYianQXWTJIPFdOoeSR+p46V9P5hBBsOkJ5+ks6+RjLSCvCN6Yjzzl2kZVsJb5JJaoYF3w4huCiAYzBh/grr0jIoaxtFWXo6psAOtKv4k4NpBdj8XclIzUEN6EmgEcCd0DBvNu5MJauiGcF5aWSoTekYncuWtHRK2ntgS0vjuEMINzSuXXKk+vWkVyuFt3bvoUCLYP+eZCqO7+Pprj//9RZBs1Jh9SIz2wbNzv1xnTV1P0kljsR0aYvjObe4HDZydu0iXW3JmBu8znjLUnVZq9MvU/3pFhuB7aNd7DdzKnSrScXLvwkO1hQKTtjAQwc44dfYHQ6f4GSd1S7EtWHAgP54e/swZ/YsTCUl3HPvPefcbv7X81m3bh1PjhvXYCuZDh4yhImvv87sWbPPuVDC7FmzSUtLZ9z4S3iDqrgRdcvjTOyTS/KOP9m8cSWzfv2RgN7388gdrXDLTSXNZCXzx//wzE9/XU2zWcF4gmINPMvT2fzTT/yxO5Xck+WozkYsVgitsFxgAm0LaUfT0RoPJMqrdm0Qqo8f3qqNk0UmNJxkiKm4ppwZvNV34Abg37kLiUsqA5nfJ05k+KJFKIrCqn/+E/8OHRi7fn31nG41r2MPjY0aR80K2CC/QkWzWQALKft20bprLOEtWvL7sp8oLsjHy2gjz6qvnFNMBz52Olw8ceIEP/zwHYqiYLPZ+OabhQwffietW7cBqD6vpKQERVH4+ut5DBs2gkaNGtV5LQ6tW3Pgxx9pfuutBOpSAPBxLKOkFFy8SvG9B7I+z6VksBs3RmShugVTUHCCtp1vZ0/zRXVej3LGs3nV86+maaCqOOkNfJe5lczyE7za7FY8jS7YNJvdnqctFgslJSUEBQWRmpqK0WjEYrGg06kYTy2ScCA5mfLSUhwMRkqAsIhICouKsJ5aGKMujR//KDNmfMqUKdOJiorEy8uLtLQMpkyZXj1vbFRUJOPHP3pap5m9h5f6+Hjh41M5dP1cHXj1yacoHTSVaQt/Zc/ew3w/ewJZe4/w1pg+uLu5knc4C08vd/IKSziYkYdLG080qx3bWmm4Od2sVlvdhW5NmjQGICkpGQ8P9+rTDaW2w0Szsio786Kimtm15uDgQFJTM847xvpM27btxNvb/vM9VPn883m0aNGcuLhR7N+fzKxZXzF16hv1tv+a2rdvz4L581m7dh1xF+k8W7t2HVA5r801R1FQVUDTKnvWLvZKVdvnIaXmYt16fNsN5p7wdJL37WHP+qXs2BpB7yH9aOZ2jh2WppCcaqXJDRHUvNiSkczhUg9aRvr81VFmCCQ82MDKlFSKoh04mt2I0NjmuOT+yZaUHCqUo6SZfWkb6naqHidCwv1Zu+Eo6aX+mI4W0rhFcyLMR9mWnEph20YcPQYBccGngiyFRmFheG3Zy9GsCpzSU6kI7EZ0Uyf27U4hzRSO9WguDqEdaFLbZzJFRVUVKscsVE4Sq4bezfsf3UdEzeNARYebv57qbsLz3MeaduE/iqrqwGKhtj23lbd3kX8E5VwntfP+eygGAwasWK1/XcNg1IPNxpkji4X4O+jYsT07tne44BCD0tJSOnTo0GCBG1QObx3/1HhmfDCDtNfTaNe+PdHRldMv7Ni+ndTUNACSkpIueZVVxdGX5jfcTPMb+tHvt0+Y+t08lkZN4t5GGhoGom9/nhGtTl8wRzG64aGUsX/xx8zb6UvfEaO5O8gdtXgb38xYcZE9Vj7fwiXMsa2o6NTKA18hrkU1g7d3RnjUa+AG4N+pc/XP+779ln3ffntJ16lLPX01DmcpKGbIrVBRDQ5kJu1n4w/zefLNd2kU4kvuiWJ+/mQaj4x/gkKLvvL9ph56+NjnzYqDgwNt2rSldevW/PbbbxQWnuDLL79gxIi70DSN779fjNFoxN8/gF69erFnzx4cHevuo9aa3Hv1pmj5co62bk1+kQV9kSsFZhc2ZXnS0vMEPQOy8BsFGXNL0D9oAPdyDH1nsf39D/AfMMAuNdWkaZXvM6u631AUPAzObDx+mJf2fsM/om7DUTVg07SzAru6EBgYyN69e4mN7c769evR6/UYjUZUVcVisaBpGuWlpdxSWkqgTkfx/n20cnSgYuMGejVpUuf1VM57/mz16aSkA9XdbcB5F04cM+ZJvLy8eOedf9V5TQB5eQXk5eUDlYsqREVF2mU/tZHr0ZSKPXt58OYbKO7RlsLDmegMOgI9XDE09qY8K4+C40V0bR5M+/tdqdi5gYJg+zz/XA3q9LODmsFbzdNXq6ysbJKSku0euEHluOoVK1bVults7dqNxMXZZ6jruRQUFJw28eKZyw3XJxcXZ/oPGMDCBQuIioo678FEbm4eCxcsoP+AAbi4NPyKMVdK0RnQo2EuN3PaxGCKAb0ezGZzrV7GLNkZ5FiNNPFxqz64MTQKomW3IKJb72HZwnXsOlhIZHuPsw5+TEcPkK4FENvUtcZlFaQlH6HcO4bImpO8YSS4WSjGFQdJ3OtIplsoXTyccQ4PYM3WZHZVHKXMrz1NqydbU3AJjyRg/ToO7k2krMCHZsHOuFvD8Np8iKQ9rqQTTI/Qv353xTOSSJ+t7D6wE31OKYFd/HHwcSLMZQ+H9+3DkuNIeMdTiwjUgla4lc37bTQeGoWn4kDzlk1RVu0jRRdK/6a1H2epC21Da/cy1v+xkZMDe581n1wlFR8/b7SsQxwp1mh10TmJVHxbtMDPGs+6jce567aa3W4qvq1bEWD7nnWbjnPXracus2Wzcf0h1OY308IImGv9Kwjxt5aYmMSQCwwvjYqOJn5J/Hkvry/R0dFMnDSJpfHxJKxYwdL4pQQHBxESEsKT48aRlJTEnNmV85Fe7EOqczPgFx2Jj5JMTk4xSmQwgU4WkjNO0KhPG5zOfNqyZZKadhKHlndxW5eoyjeRlgDcFbjwgA0DgcFNYG8SSQU34e8jfWvi+uP37DESnvMlJvivdyUxwQZy3guo9fZ1KbBLZ0J69CB1zZpabR8SF0dgF/sc9D4apvFVuoZmVCgrNVJabsbJyQknV1d2b1qHIcmPxA1/4OzmDsAJzYiiA8UCj4XbJ3h3cnKiU6fOrFixnOPHCzCbK2vKy6vsTnRwcKC0tJT8/DxWr17NgAED7VIHgN9TT1PQuSOuz72Ar+lPQt1LyS7wZdizn7N42sMUV+jpFZhF4GgLmf+tQB0fg+2EMw5LfsBv8xXMa3Jef60Iaqtcy5SqT06UU2OFrdhw1zuRbMrh5X2LUVUVg2qfOUu6devOnDmzGD9+PN27d+fPP7dgNBpxdXUjKjoKVVXJysyklaMjHV5/HR5+GN57DxISICurzt8em0wmZs/+iu3bdxIcHEh+fgEmUynBwYGMHTsaZ2dnpkyZzpAht5zWcOPl5cXDD9tv/vbXX3+r+gPFdu3acs89I+y2r4vx6HAThek/4tsklPBgX/Iy83A2GDhZaub5Zz9k1JAe9OvcjPyD6RRk5WA5Xoh/1452ramh5nSDOg7d4NoJ3uozcAMYMKA3CQmrSEi4ePCWkLCK0tJSBgyon+GcV6OhQ4eQlJjEzA8/5MWXXjorVCspMTHzww8JDg656Lw81wxHH3zcNfbs20KiawSu1iJKHcNo5u+Gr48DliO7+DNZT5BjBYVmd5pHnOqELEtj15/7qQhwRy05xt7N+zB5tadNsAG04xzelYXq642rQaM0N4dim4qboxFFO2P1UodiDh84hhJ4I2E17+7yFJKPmvHpGHHa6qAAhqAomjr+yPatKl4db8BLASUsksC1q9iapBLYoymnLZDpHE5UyHp+3boDXUAc/V0UFCKI8NnMxq35OEQMILTmh4hKIyKbN+HP9VvZa2hKv2AHUH2JbOrCD9u2o7m2pot/5dOYLXsL3/+4B33HwQxud2qOP1s6Kz6bRdjgGPy0NFbPmc7PFZ14dWQMenREjniEm+Y/zwePP4/5sSG0D3TGUpBKirEzI/uEcd63Ds49eejxjqx8+2UeMo5j7IBovNSTbE0prxGM6ojo15/ITz7lvVc+QburPX7GMranllZvoxWt4V/Dn2VF01dYNHMYgR1G8Wj3eCZNeoR/5o1hQEsfdEXHKPTtzU0xo3nixnhefWMc/yl9lH4hFg78bybTtnhx28xhMjebELVUuSppfvVcaCkpqSxcsBCAu0feTWhoCFFRUeTn55ObW/uVtO3F19eHsQ+NZSxnDzGtqq22wVv+xoXEp3nTIjIALxc9lqJM9v7+O+lKY26K9EBxdKdv72B2Lfuajx1vpnebAFyVMo5nmvC5oQtNnTwJCHChfN/v/PynI22bOKOW51Csce55NaupNIkdSIc1c4j/+L+UD+xCuKee8hMncYjsRPNr/3MzISgs1SgsrX1AdKnbXyq9swtDv17At0OHkLlt6wW3bRLTjqFfL0DvbJ8F5Tp4aDwRauOD4zqsxUbyi04SGtmM9j37cvhAMn5hNkxFhfQa/QRmTeGEVcHqDo/72OjqVfedU5qmoSgKx45lcOxYRnW3lNlsrp7+yGw2Y7FYsFqtHDuWQWbmMfz9A6qvW5eMoaF43TeavGeeJrPXbQQoCXQLV9HW38WTN4BWYSLnhB7FQ4/TCBvlc/bg/PtEXEbdhzHUPqs9apqGioJOUXHWOVR2udm0UxPtgaIpWDUbzjoHjltMaJqGXtXZoc+tci63G27ozsKFC3nggfvR63Vs2bKF/fv3ceONPcnNzeVAaiotjh6FRx/F9p//oD71FBQVwRNPwJ1312k9s2bNo7TUVL16aVpaKbGxNzBy5DCcnZ2ZPPk9kpIOkpj4PkOGDGLIkFsA7NbhVqW0tLR6gYeG1vGGG9k19VM6+fqQbSqlcaAX5eVWbKVmgkMa46SCKSOHg5knaHYygwMVNkKj7Tu6oKHmdAM7hG5wevCm1+uveJL7upaXl1+vgRtUtqGOHDmcOXPmAeefHy0hYRULFixmzJj7Gmy1kavFuPHjmDJ5MlOnTOHBMWMIDQ0BKg+QvpgzB03TGDd+XANXWYdUP9r36sKJ1btYs2wfODQisKMvEf7eBHfpTUzJOvb99hM7VEc8m3YjqOmp0E3VUZG1k993nMCsuuAd2pmbu7fHTweUF5N7ZBv7NxVRZlUwuHgSENOP2ChnoOS03WtFh0jO0hHUJ+y0BThLU5JJszamS4T72cOC9AG0iPJg/w4DzZqdWnjBMZRmoQaOpgfTIsLljOs4EtoyEufDB/BuFn4qkHMjork/m7NP0qxlCGcMaMItsiUhm4+RFdaMYCOAik/zZnju+BMlqgVNTgubtDOG4TpiPP4HH774IemljgS07c8/vpjAqHDdqbv8Ft6eb+STdz9j8ZtPM6PIhpNPGDH3RXLnhUI39DR74BO+9pjBe3M+55VvczHhiEeTULr0ak5VU5u+5aPMeLeEf3/wFf949APMOic8GwfTOS4Kz1PbVLXsA6AL5e6ZX+Hy/jRmzX6N73PLMHiFETuuDQNiIrhj+lwM703l0/ee5qvjKj5RsYye+T5P9D1zDjghxPmkpqbh7e2Nr69P9WIJ7U4tDDBp4iQGDxnM0KFD8Pb2JjU1rcFDt4upCtpqE7zZnFzRHdvCT5tyOGGyoDq64xfahtufvJU+ITpAR+gtT/K06//4cfVy5q0pokLnjGdADINjutDUyZE2d4xlsHUJaxbM5JcyG3qjM64+QbTzuPBbSsW9PaOefZjl8ctZ+81n/K9MxdkrjD4PdpDQTVwXGjkpzNtgojaDqHelVwAQ6m3fNcRdGjfm9gUL+WX8kxxece5h4OF9+jDww49wscMwvCoa8O+WNvZvUUlwc6XUmkuYzUTPW4dSZFEpq6ig86A7sJj+n737jq/p/v8A/jrn7uyF2DuIvTe1Z1WtUFTRav0UVZ3aKkXRqtVvaWu0Vao1ayu1hdp77xEEEdnJTe59//7IuvcmIbgR2tfz8cgfcs94f8a56Xn3M6KhRoUi0s2ApjrBhPJWZGPhjccWFZW842V0dDQURYGLiwssKetxuLi4IDExuZ1MJhMiI6OQP38OBQKg0DeTsbdMAPLElYLnzNU4ueUbWC33kj80qNCazsMt7hxmXA9En7yAREai0DeTcygagV6jRag5CjMubUaMxQyLY7JRARQoECQn51I/y4mNC6xWKypXroxbt25i4cKF6NWrF+rXr4+9e/fh740bAQBVK1VCQGQkMGUK1OHDYW3WDGqbNkB0tNPjOXz4aIbdS/v3Tx/B9uGHw/Dbb4vx999bsWLFGpw5cxZvvz3gP/Vur9fpEFGtB/Rn52PLxVj8HWHAjCEdoSaYMaZvGyAyCiPnb0bo2RP4qnFxRLR4H77eOZszyq013TxMKpSpk0bLwMEjcuQGd++GQavVwsvL+QtOPon79yOQlJSUK8nAnTv/wcKFS+Di4oKWLZugcOHkxr927To2bNiC2NhY9OjRJcenlg4a9B6qVauE+vWTdyT96qup6NGjCwoXLoRr165j4cIl+OCDdwAAWQ2ZIAAAIABJREFUwcG7cerUOadk5+PiHm0xy5iYWMyZPQdnzyZPBYqJicXfGzciIKAM+r/e32nTSgf93yBUq1YtW7uXnj595rF3L3UuK+7sXYRlpwqgfe9GybuXPjbB/YNLseiwJ5r3aoESaZmvWJxavQA7pR5eaV8+eUOE50Tizs/Q+I1DCFq2AkPLcRgYESW7cuUqRo8aDV9fX8TGxqBf/9fT1m47cOAQ5s6ZDRcXV4SFheHzUZ+n/Q+fhzGZsrer3aP+HcyunTuDsfC33/DdjJxdqJno3yq7z3BWtp9NQP+fw3H1nuWhx3qaFHzW3gODm7k90T2zy5qUhOML5mP7qM8RdeMGAMAtf340Gvk5KvZ+FaouZ6a4OjJbgU+PqThz/SZ6BbggJt6MxKQkqIoKq6qBUafBoXsWqO5+GFfeCkMO/edb6mi1a9euIjh4Z9qupAkJCWjSpBkAYMuWTXa/r1+/AQoXLpIjI91snXi9P+KXLkHCq6/CXL4CTJUrwc3NDYknTsCwazvi5/8OY6fOKPfjrByL4cOzS3BewpEYE48YSwIUAVw0+geWW1EUaFwMKKV4Y2JAF6fHZLVaoaoqDhw4gGPHjqBs2bIoX7483NzcoKgqIsLDkThmDPJ37AglJgaYMwcydy6UIUNg/ukXp8YyceIUKIqCDh3aYeXKNRARuzXeUh08eAS//Za8eeErr3TJ8V1M+/UbhPr1a6e93z9IcPBuBAfvyfHNHfbt2Y6ry6ZAosPQoHIZJJgTodXrYFSBqGuXcTrJHf49RqJKhSoPv9hzasqUqTmbdKPMxcbGYsOGLTh06AiuXQsBkLzRQtWqldGyZZOnkgU/c+YsZs36Fffu3Xvosanzz50xVPVxXzY2bNiIFSk7ML3UsSNatmzxxLHYOn36NObMnouwsLAHHufr64v+r/fL1i6nOc+JSTcJw/7FS3DctxV6NiuWtkaaRB/Hqt92Q9uoJ9qWfb7+7wyTbkSUlQMHDiEs7C7q16+f6fIFwcHB8PX1e6SNFHI76UZET+ZJk27Pg+gbN7B70tdQxIra730A94IFn9q9bZNVB0JiMf+6FbvvASGxKkQEBV2seCGvFl3yW1GzoGvKOcmzGf9rzFeu4Pb0aYjevg1xR48CAEyVKsGtUWPkHTI0x6aUproSfw/fX9+K05E3kkcZKslTSR+UcFQAlPMoiLcKvYCixpzZDND2/tu2bcWNGzeSpwMrCpCYiEY3QlC4SBFI//5QzGage3egVi2Y/8+5M6NiY2Mxe/avOHz4KMqUKYX+/fuk7Rqam/78c80jrcver1/vp7KGfGR0FE6vmwvtiU2Igx4JOhN0YoFSrDLKtukHP988OR5DbmLSjZ46vmw4k/OSbtbb/2DR8jPI36YnGhdJneogiDzyJ37fZ0KTXq1ROmc2bMoxTLoR0dPEpBvR8+2/kHQjIqKni0k3eur4skFERP9GTLoRPd+YdCMiImebMmXqQzabIiIiIiIiIiIiokfGpBsREREREREREZGTMelGRERERERERETkZEy60VOl0bDLERHRv8uj/G3j30GiZw+fSyIiyin8C0NPlVarffhBREREz5FH+dvGv4NEzx4+l0RElFOYdKOnSlUVGAx6/h9FIiJ67mk0KgwGPVRVyfY5/DtI9Ox4nGeYiIjoUfB/69BTp6oK9HpdbodBRESUK/h3kIiIiOjfT6/XcqQbERERERERERGRszHpRkRERERERERE5GRMuhERERERERERETmZFgCOHTuS23EQERERERERERH9K9y4EZKcdKtevXpux0JERERERERERPSvEBwczOmlREREREREREREzsakGxERERERERERkZMx6UZERERERERERORkTLoRERERERERERE5GZNuRERERERERERETsakGxERERERERERkZMx6UZERERERERERORkTLoRERERERERERE5GZNuRERERERERERETsakGxERERERERERkZMx6UZERERERERERORkTLoRERERERERERE5GZNuRERERERERERETpbNpFs0fnvZBEVRsvejqtAa3OBXpDzqvzQAX8wLRkhCzhYkJyT82RMeamZl1CDvG3/BnNsB/hdZzuKrOvrM+52hIaZesjqckIitg4tAqyhQFBVuPZYhvStacXlaIxiy06eNrTH7tjzdstIzKAF3Tm7DkpljMbx/F7SoUxElC/jA3aSHVquHq3cBlK7REj2HT8PKkxFw7I1ERERERET036HN7mFFG3RBkCERiL+Arav3I9Ri87HqicDmrVDR24KYW2ewb88JhMbHIOzaSey6dhK7Vs7G1+O74+vffsCbVd2h5EhRnE9TuAGCeiqICT2AlX+fRgxzLrlP8UD51q+gZ6lonN/8J/bctDz8nKwvBreAZugaVABJEoGTGzfgWLhtmkRFnmrt0LS0C6CrjBLGnOy5grDg2ZixMQTpJdKibOf30b2iIQfv+28Vi0MLJmPFuaT0X2mKoPXgvqjj9QTtaN6GT5q2waxQK6CocC/REK3bNoSf3MGJrX9h56WbOH/gJs4f2IiF305A4w9/xe+jmyMfxxQTERERERH952Qz6WZE/eG/oj4AufE9Wqx3TLoVRMcvF2Bc9eTLxV9eiRHdemPavsiUkR6C6NMLMajlXSRtX423y+mdW4ocoq0+ELN+HYjE7UNRevNpxDxJfoecQ/VHu1E/o52E4sfWq5846ebX5nPMbwPAcgxf1NjkkHTTouyr0/Hb0GJPYR62FXd3zsaY0XuRmPY7I14qPZRJt8chsTi0YCxGr7MZYqtvAK9erz1Z0i2VokWxHr9iy0/dUSz168x8CQv7NkXvhZdhEUASb2HruM7o7LETm9+viOfjW4+IiIiIiIicJUdyCcZiHTBp0UQ097R/ubXe/RufvPMTrnLOFRE9xxSX5vhkUlB6wg0A9MXRfdInaOFi870nkdg9YSxWhHOYLBERERER0X9Njg3gUYv1xMD2Pg43EERtnYfFGdbdIiJ6fmjLN0GjvBlHzCl566NhWfsBxNb7W7D+H64ASURERERE9F+Tg7PmXFGxWpkM81cl8QQOn0jM9Awiomea/gVMOnYD19YPRmlNJp+rnvB2GOELayRu3IgEx7oRERERERH9t+Rg0k2Bi4sp46YJkoDYWId1uCz3cGz5ZAzr3gxVS+aDp0kHrc4Ez3wlUbX5K3jv23U4F53xlTXpwCcor8t8t0ld4AjsTwLiLqzBhH4tUKmQF0xaFaqiQDG2w8/3bK5nvY9ji8bijXY1UcrfGy56PdzylEKdzu/jpwP3Hr4DYdJ+jAjUPXzXS+tFTG5gyDzeiiNxOOnBt3kQiTiFVdPeR+/WtRFYJA88TDpotHqYPPxQKKAKGrTtjjc/mIBZy7bjfERyPNZLU9HQkHn96Wt8iVOpzRQxHy+ZMt/FtcDAv212cX3QbqCpO74m4sa26RjUrjqK+bpAp1GT71fnK5x9LtbMS8Tu90un7Ibq+GNCxwVREPNVbJg0AG2qFYefqx46oyfyl22AoI9/xeH7jv04dXdVLcp+ZLueGwDEY0UvD5vrG9Hih1uZJm/ir27H3JH98WK9QBT2dYNBq4Xe1QeFAuuhw4AxWLA3FBlT3Q/alTi5LLCGYd+c99CpTinkddNDoypQFC1Kv/cHxj9kF1nL7WDMHNIRtUvng7tBD6NHXpSq9RLe+X6X/ZqQWXisMlmO4YuqeihqHvRf57BlsnknhpXQpMepr4axxx+10+nhkScf8nln8t0GANYI3I90aCFFgcFoeG42kCEiIiIiIiLn0G7adRxDh+fEpS24fesOMrzSqr7wz5s+/i3h4hK83+MtzNgXBosAii4farzUD7W8biP4z1U4sukiDm/6Hf/7pi3GLPwV79X1zubLqyBm/0S0aTcC2+5lnTaTyP2Y0qMjPloXgkTbd+W7F7Bn2STsXf8XDgyv/OBRKooPKrXphqBKkTi7aS0O3c3ifoobyjbriqD8FxG8fDeuOynJFHv4WwR1eA9rrpkhABSNJ0o17IhG5QvBXY1B6Nm92Lx5EYLX/YEfYcRL82/jz57uUNwC0KxrEArGXcHOFf8gJKt49MXQsEsQDNf3Y9W2C4h/3CE7YsaZ2V3QZuAqhCQ9rXE/Kvxrd8GrUfdghQJD7aLIbICSs0jUboxr/gpG7Uzuz8kScetMMBZN2IW1649h5ZaJaJK2mL+KvNVeRLegu4g4vQnrj4TZJHk1KFS3I+oXSX1edKhYyuhww3DsntwPvT9bgQtxAkCBW+nm6NG9FCwn12PZtt1YdWo3Vs+ZjClvzcKiKV1QIrsr+luuYWn/juj5yzkkPFJzCeJPzkTHN4dhTUhi+rNjvoML+1Zi2v6/sGbvQmyf/TLyZ5b2f5IyKV6o0KorgsrE4dL2ldhru9GGmgdV2zZFgGvKvzXFUd4ZmyrYhh5xCPvOOmTPNaVQMdDFqfchIiIiIiKi58Cod3vKo7CGzJRmBghg86MNlBH7E+0PtFyUqY2MosD+WNW7mywKtyYfcn2R9CqmSz9GcZWGk05JQsol4g9/ITUNis25TWTK8YT0WCLPy+6/N8rGtaOkiUmxu4+m2AvSLMAgbuU6y2c/LJFVq36XKa/XEC8VAkNb+SnMKmK5LD91yCuqbYyKScr2mCyr/jkqx/askWm9K4ibXidaxbYcquR5fb0kiAPLBfmmvt6+bgytZFao1f646IXSyWhfL9oKn8mhRMcLZoP5gIyspE+vQzWvvPzzFXG8VPSJWdKlsEYUGOWl+ZH2H97/VTo4xKOrPk5OJtkflrBhgPir9vWQ/62NdvUQd3W/bNq4UdZNflnyORzrXb+51HQzSrFWw+Xb31fK6iUz5J3G+USjQHS1J8oZh/s9kPWW/NDSYF/X+gYy5aLlES5iI+mojK6is78e9NJw6iVxvKIlIUaio+7LvpFVRAf7MvrlKyhlu0+XTadvSVjoGVk/8gXxsa0HRSeBI/aJOWMAcnpCLYfrZdJWdmJk35h64mlzfU3R/rI6LKW/WUNlcY/86f1b0UvpN9fInbTumCS3jmySjRv/ktl9S4vWoew1WjQRX52/NBz4jcxfsVqWz/lE2hXTiwKNlHovWGJioyUq8oJMb+rQDqq35M1XTNqOXS3HQu7KnYvbZUqHgqKxPUZTSN5YH5UDZUphvSNz2jixf2SLWU5+XV9c7b4rFDHWGi8nHqVvExERERER0XNv2rRponoVKOWc7J0dK26vHI3JwfH2I8QUPcoOeAftvRRAbmPxu2/jt8vpI2EUQ0P06V0GqYNWDBV74ZWauvSrhm/FyCGzcDFlKJDiXhJ1mjVH86aV4O8wfMlyeRu2ox+W7liMLwZ0Rvv2QXjnhyUY0yh1WpggYs3nGLH6tt30UW25ofjlp2FoX7siKtRqiyFz/8CIKqrNqKVnS9KxZVh60pxez9oANGxUKMNaeq6B/THt02Yw5fAcN2Ph6mjavDmaVS8Mo929rAgP3oIbbedix9pJeDvoRbTrPBCTl07Fy945OMs5B6h6F7i6ucFF7xi3Ffc9gzB77mA0LZMPPnkD0GrE5+hZ2KZzSiLOLF6EA05Y1tB86Cu8MXY3ItI6sAZFO/VFS5+Uilfyon2fdsiTGqaYcW722xi1JTrt+HyVmqJ582aoW9LdYQSpGfs3HUbVb7bg7xnvomeHdujYbyz+mNUfRTQAoEBncoWbmysMjp3NGgG15VTMH9EOFQr4wq94Qwwe9yYq6myOsdzA8t+3Ic7pZcotcTi7cCC6jtyFGJvvCtWrPkbOGILAnBxeSURERERERM8k1bnLuiUhNvQE1k3tg2a95+Gq7XRFRUWepuMxf2RdmABYL8zHtyvu2CW81AKBKOtt8+qvFkSZ0u42EQqits/AnEPZWPxMcUPrEZ+jha/t9QrjxXc+wttvvYhyhgis/WU5btnNBNWgaOsXUdVg8yttGXTuVDlDEutZYQ29iVDbMiTux09fL89kDTwF/u0/xrRJ4/FaNQNyg6KvhXfGdkMhmy6n+DTHWyPexsAu1fCc5d4yoUGhNh1Ry2TzK30AypWy7z2Wq8dwIsPabo8qBpv+9wOO2s371KJMBfvNS/SlyqKk7S8slzH/fytxNxu31wa8gbFvloXtbFTX+q/h48H/h17182c9TVfxRNNOzWH7KGtKlkOA3jatZ0XEiWO4YjelOefLlBNiDs7Cm03KoUrPOTgRlxKEooVvtb6YuXk1PqrOqaVERERERET/RVo8fJuAh0s6iS9r6PBlFh8rLsXRasg3+N/nL6OkEQAEd7duwAGz/Vuy6uXjkHhR4OntBQVhNvc6hw0bzuGL6uUevDaXvg7atcrrMHpHRdGXRmL6SwDMm/HLP9EOa7VpUaJMCYcEmwZFypaGSdlrv+bbM0LNkw95VCBtGTmJx7GZXVFufmFUbfACGjd+AS80bYbG1YvAvcALeP3dF3ItVm2FtmhTwqHVFD80Gz4NzXInJCfToERACft+qbjA1XF4ofU+wiOsQJ4nGP6UeAgbttgnraHo4OVtP2JN8fSG/Waagsita7Ez9hV0dMUDaFCwZTtUc1z/zVQLb06p9eDYNEUQUMIhsatxgYtBge0wMOv9e7hvBdIqLMfLlBOsCN+9ED9vvQrFrxSqBZZFYLV6aNa+Czo1KQ2P5z6RTERERERERI9LG3nj/JNfRfVEYPNWqJg6tEVRoGpN8MpXDGWrNUDLNo1Q1ttuaAounbsEx7X0Lefnom+zjUgfKCSIunTTIS2YhNOHTyAB5fCg8SOqX2mU9sl6LqVEX8UVxw0PFA28fb0ybNSgunvCXQEcNyV8FmgrdUbnct9g3DGbKaYQWKKuYv+6edi/bh6+URSY8tdEh75D8OG7PVDVJzcyAQp0Jcug+L96mp0KV3e3jGNHM3RDC5KeYKdaAED0BZy/4bjzRTw2j2yJF6bZ3NByGyccprJK9AkcvWhBx4oPagwNSpYp+XibTqiucHfN2McUx3pISrLfaCXHy5STtCj/zgrs/SQwRzfqICIiIiIioueHdt9l85NfRS2Ijl8uwLjq2Z2EaUVMdEyGMXbWyIvYu+3iQ84VmENv4q4VKPKA3JHq5g73B3wucbGIy5BE08Ggy5ioU7RaaHN4LbTHpq+OEQum4/TLw7D0Qlzmu6yKIO7GXvwxrjeWz1uC/234A2+Uze4Wls6iwMXd7Zmdpussqvp0EprW2BjEOja2JCH0+HaEPuxkyy3cuGUBHpigUuGWWQIxW1Q8TjXkfJmIiIiIiIiInh61Wb0KuXBbBS6uLhkGAOmqj8PJJIHIg38Stg5+YMINAKCqGQcY2UZgcslkUwELkhwH2gCASObJrMfl5OuZKr6JxUePY8OMD9CjcRn46rMqucB8bQWGD/0J1x5zVvGTxK08pYTUf4Hi4pqx/yrueGV5/EOfH7HcxPctHp50fdrt9TTKlANRw6VMc/To2QNtK3g+8DuHiIiIiIiI/ltyKQuiRdGSRTOMHpPoSEQ9pSmcilsRFPNzKL4kITracT/FrEbFZUYDbYaBNhZYHBJcEh+HeGeX06UEmg+ciN+2nsbt8BAc3fw7pn/UC/UKGR0SAYLoneuwPdLmV1pNxilxVisc848SlwNx02NR3IqhRD6HVpNEREVl7L/Pi+ezTAq8GwzAZyM+xaAW+XPrC5WIiIiIiIieQbn0jqggb6OmqOiQdbOEnMOFmCxOSdyDcS2qoUrVxvhkqxNewnVV0bCuu0NCyoKQqzcckk2CiJAQRGZnZJjqCW8vhxF2EodYh4yd9eZ13HDC/hUAYDnzPXrUb4iBi26ljUJTXfKjYpMgDB7/K3YeX4ch5ewndUpSBMKjbALQecHbzb4rSFyMQ6JREBZyg0m3HKRkWPQMyHJsoa4amjbydniAk3Dx7EVkvlycIPT311GzahXU6DkXl53U/5zKqWVSoWZSnc7tvoI7f3+KF4rlR+nyZVCocB0MXXE9Q7KaiIiIiIiI/ptybWCGpkwvvNncwy5BJbE7sXbL/UxfjKO3/oLZWw7h2M0iqFnZ+OQBKN5o0+dl5LergSSc2fUP7toFEIVd2w7CYd32LLihfEWH3Sstt3D9pu1ruBW3gnfg7JMupJ9Coq/h6N5gLJi7EiGZJFIUz3poVcfTrqEVt8IoYjvKTxuIyoFau7awhIbgll2Mkdi9/VA264EeXWZrqAnMCakbZCTh0Kjq8HLzRoOvTsECd7R681WUsktcW3B2/V84l1nWx3oZi35YiANHTkMpXxuFn8khWU4sk2KCu5vWIQFuhjl1x2TrFXzX0gdunuXwfvBj9mrzTowbMAHbQ5MgEFju7cP/3vwM66If73JERERERET075J7r95qYfSZOgGt89iEYL2DxZ+MwJob9hmp+PMLMWjQHFwRHzQb+Rnaeztn5STPtqMwrn1em0oQxP49CaPW3kwZWWPFnc1j8MXSOxk2fcicFpW6dEWg7Zpq1qv4e81hpI7Ns9xcjVGTtyHeKSVIjztq46d4bUIw7jokJ6y3N2L5jvs28WtQpGsvNDHZHKQWRoduDeBiE7ZE7sCqrakJUEH4ji/x5YpwCBetyiEK8gQGwn52pQXXLl9LHjllvYYdW08hMk6LkuWKQAPAVP9TzBgUCGNamwgSD07BsG+PINo2cWwNQ/C4vhi1PQ66gDcw/v+e3R02nVcmPcpUKG2/cYflOi5fS36yJSwYm/dHIDapBMqVfrztPSTyHM467LZqDT+Hs7efxWGERERERERE9NRNnTRaHi5Odk7qJUFBQRL0Ug3Jp4EANj+qpwS27Jb8edAr8tGya2LJxlVFrBJ1+Ht5pZybKGnXU0TjVUaadR8gg4cOktdeqiWFTIoo2nzSZNRWuWO1OT1qq0zoFSRBXRtIUa1iF5PqESgtuyXH88HiK1nGY72/Vya1KSA6Jf1cRXWVQpXqSJ3KRcRd6yW12zaUfKptmRXR5a8kjRo3lhYjt0iC3QUjZNtHVcXN7noeUqrhi9LpxUZSxq+AtBzzgbQ02Neh6lVeWnULkh6DfpKTSdmqPBERSdw/QgK1KddRNOJRsqF06jtI3nlnsLzRvbkE+mjT61bRScGWE2T3fWvGC8Udlkkv+IpqE5PiUlhqt31ZXmpWUfLlqSPvf9pF8jrUg6nUC9I1qLv0mbZXzCKSeGCG9OseJN2aBoirYn+ssURj6RoUJEE9Bsqc449QSFuWm7Ly054SFNRRavprHPphHqnaPkiCXhkuv1/MTg+0yp21o6RnUJAEdWstFb1V++tBlTzVXkzu172+lE0RIiJJcnb+UOkR1E3aVPKxqy9AI4XqdpagniPkz5BEubHiE+kZ1EnqFHSM00cqte0mQT2GyK9nbOrBfEjG1HCxeRYgqmdF6fjWYOnXsrS4KoqYqnwqe+JsO8B1WftRI/HX2fR/xSQFa74krw0aKkMGdJdmZb1FqyjiWu5V+eW07cnZKEtQkAT1niL/mB+9HXoMmSdnEiNly/heEtS1kRQ32D+jilsZadYtSLr3+04OJDqrTDYhnp8pLe3aVBGX0q3k9cED5KUKXqIqOinx5noJz+RxyJak4/JlTaPdd5eu3IfyT8LDTyUiIiIiIqJ/t2nTpkk2k25RsqCj0SEhkdWPTqqNPSGPlFJJCJFd88bImx0bSIWifuKm14iiasXomU9KVm0qQUMnydIjYRmuaQ37SdoaHhaPViqPOiKJmd44heWeHPn9C+nfprqUyOspRq1WjF6FpEKT3jJq6Sm5t3WIFHVMNKb8GLv8IbGO17OGy+FfP5Zu9QMkn7tBtFqDuPsHSO2XBst3O26KOXqhdDJmfj1NkcGy1THB8SAxV2TX0h9l/AcDpHvbBlK1TBHJ6+kiBq0qiqoTFy9/KVGpoXTo97F8t+a0RDwowRB9RpZ/8ao0KV9QPI1a0ejdJE+JatL6ja9l/aU4id8wQPzVzOJWxLX7UokXkfhVr4q38pA2UQvK/21+zMxE0hmZWFv34OtrA2XE/ge2eAqLXJraUPTZ6deGVjIr1CoiZtn1XinRPOhYXU0ZfypBTk+oJboHHacpKe8G2zd20q2dMnNYF2lYoYj4uupEVRTRGD3EP6C2dHh7umy7kVm5LHL/1GqZ/n5PaVG9tOT3NIpWVUTVu4pv4UCp276ffDZ7i1zO0FGzURZAYOwqi+MfvR00xYfJzoQ7MqeN4YHHKZ69ZaXj9R+7TLasEn5wnnz8SlOpXCyPuBs0oiga0bvnlRLVWkn/CWvlYob7PpqEC0tleIvS4uvmLcUbDZR5J2Ke7IJERERERET0rzBt2jRRpk4aLUOHjwQRERERERERERE9uenTp+fimm5ERERERERERET/Uky6ERERERERERERORmTbkRERERERERERE6mAndzOwYiIiIiIiIiIqJ/FRXwy+0YiIiIiIiIiIiI/lU4vZSIiIiIiIiIiMjJmHQjIiIiIiIiIiJyMibdiIiIiIiIiIiInIxJNyIiIiIiIiIiIidj0o2IiIiIiIiIiMjJmHQjIiIiIiIiIiJyMibdiIiIiIiIiIiInIxJNyIiIiIiIiIiIidj0o2IiIiIiIiIiMjJmHQjIiIiIiIiIiJyMibdiIiIiIiIiIiInIxJNyIiIiIiIiIiIidj0o2IiIiIiIiIiMjJmHQjIiIiIiIiIiJyoojIKCbdiIiIiIiIiIiInMnTw51JNyIiIiIiIiIiImdj0o2IiIiIiIiIiMjJmHQjIiIiIiIiIiJyMibdiIiIiIiIiIiInIxJNyIiIiIiIiIiIidKSDAz6UZERERERERERORsTLoRERERERERERE5GZNuRERERERERERETsakGxERERERERERkZP9x5Nuidj9fmloFQVK2o8Kz94rkZDboT1T4nFybh9U9/eET0B7jN8ZDsntkIieN5YrWDa4AQp7eqFYkw+w9qY1G+eR4TABAAAgAElEQVScxVd19DbfTwoUxYg2c+7wGSQiIiIiInrGZS/pFvM7OpsUhxc/+x9V1cHk6Y/StdvjzQl/4lTU8/BKqEXFwUsQvH0CWpqU3A7m2RW5EqOG/YqDoZEIP7cWoz78CRezkS8gonTmbV9hyIxgXI+MwJWtU/DutANIethJmiLoPWcndszsBv//+P8iISIiIiIiet5k7zXO1ALjt+3GrrUfo7Y+/deaAt3xw45d2P7X7/iqTyWYokNxfu8a/PhxJ1Sv8SoWXEzMobCdRYFbkcqoXSsAvprcjuUZpjHBpE9PSmpNJugfcDgRZaSYTDCmPkaKApOLEQ9P9RuRv3wt1A70h4H/X4CIiIiIiOi5os3WUaovAmr5Qm4fh5fti58hP8rXrov6urpo2KIVKptqoM3MC7BAEHd2Ad7qXxO1/x6CUkxoPd9c2+LLXz9D7JgVuOzZCMMm90VhjroheiS6Oh/hl4m3MWLBCWirvYGv3qkAfjUSERERERH9e2Uv6ZYdiheavNUL5WeNxtEkABBEBy/A0vOD8GEZvlo+3zQo2HoUFrcelduBED2/FD/UHz4P24bndiBERERERET0NDh1vJKmYFEUss2vWUJwNcQCmC9g3ZQP0a99XZQr7Ad3ow4arRHueYqiQsPOGDx5Lc7HZHLBmLNYOfEtvFinLAr6uMKg1ULv6o38JSujYfteGPzFAhyMeIS14+LOY/WXr6FZhYLwMulh9CqCGl1GY+0V88MXJTeHYMePH6B7k0oo4ucOo8EEL/8A1O04BN9uvor4bIZg3vgm8mvs18PTFByI1ccX4YP2lVDA3QCDqw+KVGmNNyf/jasOOzpYQ7Zh5mdvolPDiiiW1wMmvRZavSt8CpVFnRcHYNziY7CrEutFTG5gyLgQ++xruLhqFLrWLg5fFz0MbvlQttkAzNhzz64uzOv7I49DvNoS7yLYYeaw+foWTBvYFlWL+sLVYIB7gUpo/8EiHFs/FMW0DuX1H4AN4ZmsE6irhM+PJAGw4sI39WCwi1mHKqOPZlwDy0ntkm3WcBxbOgEDX6qHcgV94GbQw+SRB8UqN0WP92di8+U4m4OTsO/jstBl2KhjBcJO/Ib32ldFYS8jdAYPFKzUFsPmH0dmj0EGif/ggwBtJmsrGvHiLymbXCTtx4hAXfpn2lIYHhyO40sn4t1erVAzoCB83AzQanQweeRD8SpN0f3977H1eja3EHncGHYlPno9Wq9iemPHPmxA0++uwwogae+HKKOzj8PQbAZCbNcdlHAc+W0UXmtdA6Xze8FFr4XO4AbfQgGo3qQjXnt3PJafzl5veeRnMMt+kHHDlqyeo9OxD4/Lcmc/5n/eBy2rlUBeTxMMJg/kLVEDbQdMxKqz0TbPdQJW9vaEmkm/jLq6DmN71EUJHyO0qgrF9BLmR2SrWoiIiIiIiMjR1EmjJLusobOklQECJP9oig+Tneb0z5POTJTauvTPoa0oIw8nijXsJ2lrUMRQqqtMWrlHTp4/J8d3LZcJnUuKQYEAinjUGCHb71vTL2Y+KVObeosKCFQ/aTj8F9l04KScPnFANi8YJR1KGETR1ZTxp5KyF3zMAfnqBd/k6wGimIpIg279pO/L1aVw2UApqVdS4lbEo9cKibct990t8ll9P9EoEKje0ujTlbL/yHaZ1TtAdApEUf2k8bjdEmHN8u7pdXR6oXz89hvSvLgmrZ5UjwApW7K4NOjWX/p1ri35U2NRtJK/3Uw5mZB+fvyqV8Vb0UqB1p/L4uBjcvbcSdm75lt5rZKbKIBAMUqZASvkZmos1nsS/ONI+bh3TfFUU9tGJxVatJLqdbvL4PcGS9cq3mn1onq3lJkXLOllv39B9u9eIx/V1mXZ7uazs6VjIW3y/aGIqURz6f/ucHmzfQUpE1hGvNLuq5WS7YfJp+P/lHPmu3JmT7AsGVJRtA79RUQk/sZx2fX7QCmnTT+38qgjkphD7ZItUQdkWoeiyX1WMUhAzxny96FjsvfPz6V5XjW5/jyryMAll1PitMj1v6bKZx91kfI2/culRitpWa2J9HnnPRnYroy4KSllVAvIK4tvyUPDtUbJlcPB8vNrxUWTWneaItJ7TrCcvpPyPFij5erh7fJtp7yiL/uWLAw+JFfun5aJtXWiuFWW/jP/kgOnz8vZI9vkt09bSgGNIoAiql9T+eZw3MPr4nFjiLI+Rj0myK0Te2TnnN5SRJPaH/TS5H/XxCIi1ugrcnjnD9K9QPozpW/6nVxP68bRsuvTauKqQKBopFDb0bJo+2E5dfq47P1rrrzftIBoFYO0nn374XUvj/EMilWirx6Wf7ZPkJamrL9nHJ8jnX9N6dS3n3SrX0yKl7N9jjLGGrV/srQppBMFEMWlqgxa+I8c+ed3ebuaqyiAqB7V5N31oSnnJMq+ab2ly8t1pbA2PR73tgOlX4C75K/cTNq3qiEFjYrA2EF+vZ+NSiEiIiIiIiI7X331tWDq+M+yfcKDk25mOT6uVkoSLeWlMXCE7DOLyP3lMrB6Y/l0W4z9BaNWSp+Ul2woeqnx5QlJTaGZdw6T4ikv2IrHK7LcIQ8Qt/NdKW3MbtItUY6OqZ4em+IpbWclv7CLJMjx8XXEaBO33cuw9bYseSV/WlJKU+Rt2ZLyoTVkpjQ3JL+0KtqS8vbmqGzWZLj88qIxPTmpekm7OanxJMrpr+uLKS1WV2k87byk5g/MW0dIvdpvy4ow+/RAwq73pHRqQkJTUobtiLf73LxtiBTV2LRNlZFyMKVOLVemS2ND6su3ViqOPGSX3BLrLfmhpSHzdrdcke9buKckCiCKSxP59lJKtNZQWdg1T1rdZUwWWOT8pLqizyTpJiKSdGq81ExL4jok3XKkXR7AGi5rBxQTbUq7qD7dZUlaMiJJTo6rLrrUOnCtIxOO2WQl45dJDzclrf4U1yYy/XxKv008JCMratPaxfjCt3LF4njzzCUeGSWV05KSGik1PFgSbA+IXi9vFDRKnYlnkp8ry2WZ26OatJ981KF9Q2VuW9e0ZI9b61kSklMxPEE9Ju75QALS7pWedBMREfNOGVY8i6RbzJ/Syyfle0ZTTN7ZYdM2IiL3/5Te+UzZTro97jNo3w8cvmccnyNDbRl/IiVOy1WZ1dYr7bMMz1H0FhlaOj1Z5xW0WCJSPopc0l28Uuvav7ssum3NMh5V6y41R+yUcKuIiFVu/NJBvE1MuhERERERET2ONh26iorER5iemYEVlqQkxIdfxLYZ/dB13D4kpFxOca+O92Z+gOo6AJ4dMWP/Voxp5GJ/uqkESqfORxUzjm3ZiTsp51tv38TtlOlhEr0WXw77HusPhyAm5XfG2u9j8brv0KNINtaLSzqA+b8eSYsN+tro+GLBlLm1epTt3AlVsljdznr1d3y77BZSZ6ppy1VGYMrWnUqe8iifP/kqknQR86b/ibuPUZ2Kvh46v5QajxalOryIiqnxSAx2/bIQpyzJ/9Q1Hofgf75FBx/7rQx1JUqjWOo5lqvYtu08LFneUYOyL76Misbkf6n+5VAu7XoWnDt6EnFZnmvPenERftkalTZ1TVuxDVql7rKg5EXbjg3Sd2x0oqfRLnb3C/kdk3+9gqSU62gDa6O6e+qnGpSsUQ0+KcWWmL2YPn1zlnWoq9kJHYun9FttAAJLa1N2sRSYTx3F6QxzaDOnrdAbr9VN3QHTgosL52JTdOqngntr5mJZZGP07VkqecF+tSj6/nYAq4ZVtF/MUfFGyVJ+Kf1PELNrM/Zkc17uo8bgzHrMLokMRWjqF4flKhaO/BS/bD6J2/EpQXi2xNjVazG+jVc2dhN11jNoL8NzVKEDOpTRJf9DLYSXu9bPYvdSQfiq/+Hn80kp52pRslJ5uKZ86lKuIkqmxGQNXY7p8y/BmtllIIBvZ4z8uH7KZjkK/F8ag19mDUU9l0xPICIiIiIiogcIu3cfKrSPnxGxXJqGxi46mHxK4oVB83EqFlCN/qjW+RP8vmcLxjXyTEsmRJ1ahvEDXkSdsgXh7WpIXi9IWwGfHkxfHMwaHob7KW+E2vLVUUmfEpv1PvZ9PxBtqhaGj19p1O80CBOWXIN//Zoomo0XQgk7isNX0jMZqnshFPZOL7emYBEUzKIeEg7uxqG0bJ0CxcUANSYa0dHRiI7VwuSaep4gesff2JPNJbFsKR4FUMDdJp4ChVHAJpeYdOogjqat6RSHS39NxZBODVC+iB/cjFqoqgLV/01sTLu3FeFh4Vm8XAOABv4F/dN3TlR00OnSyyGxMYjNZpLKfOwgjtskiTT5C8LfJnajf35450DS7Wm0i9399u/Evvj0SlHz5IOfzYqIql9e+Kb924rb/wTjTKbJMwU6/wLIm3asBjp9eoVJTDRispsgVIuje99mcEt9TG4tw9zVYcnJF+tNLJ27DmjTD10KpAdqCTuA+SP7oFX1UvD3dIFeo0JR9Gg8/UpagkgSwnEvu0E8YgzOq8fsU3wro0rR1GyYFaFbvsJrzSrA3zsfApt0x7tT/0JEiYaoUkCXzSs64xm0l+E5KlgEBdMfULgXLpzFc5SE4//sR7SkH+tm0iI2OvlZiNEY4ZL2KJhxYNN2hGfRtLpqDVHHNf3fimclvNizKUpkt1qIiIiIiIgoTd2aVaBC//h7KWgKvoLZu/dh37592L//EI6duYK792/gwJKx6FbOLW3USHTwZ2hSuwtGzFqNPWcjUKjLJPy5cz8OHViGtwNtxtyIpI300AT8H2ZO7oRSLrZvmgJz+HnsWj4DH/eogzJ13sX62w9PDkhUBKJs3n4Vo8l+9JVGD32mA+YEsfcj0kfIQRC//FXkcXeHu7s73L3qYcKJ9Ddla9QlXAjN7mu2Da0Odu+1OgMManqAYo1CRLQAMOP41Pao2XYYvl0ejFOhnmg5ahG27j2Eg5tGoq7eJvKHVItG+6ARgtkfFhYXGQWzzQu/otfDJgwoWu2T5HWz8JTaxeZ+cffDEW9bTp3ers0UnR56m3LK/XDcz6IaNVpnbRqswL9Tf3RIzVpZ72PtnMW4bgUsF37DT9s90KlfO6QOyJI7azCoXn28OmYeNhy8BHO5/pi5bhcOHNqHuT0L2OyqIg/tP48Xg3PrMdt0tfDxnFFoWchgM5JNIPF3cGrrH5gyrBOqlm2Gsbsis9HznfcM2srwHBlNMNp87lgv6ayICI+wSe6Zse3dAHikPAueZYdjhzm9zImXzuNKpsPvFOi9feCeAwlyIiIiIiKi/6Ltu/dD+0QbmOrzoWz1GqjxoJEQEopFX07FwajkN0pNiQH4/sfBqG8AYDEhvymrtzwXVP6/JTjR+RDWL1uB9Zu3YvuOvTh1Ow7W5GE0iDj4Ld6Z3B3HJ9TCg9IYirsn3G2KKUlJ9rNqxQJLpjkZBS6eHtArSEnwKDA0GY21XzSxSyylUd1RLO9j1GdSIuw2A01MQII1PUBFdYenmwJEr8fX47YizAoAKvy6fYOfP+oIDwByez88cuGF2WRXPwJJSIAZgCHlc0lKTJtKmLkHBG21ZDE97ym1i839TF7eMNqWM9GMRNiUM9FskzQBFC+flGl6OcyzNfp2LYTfZ1yFBYK47XOx4OxraLngFxws/AomN0kdumTB2blfYO7ZhOTEkq46Pvh5KvqX1QBIRGwefbamVj5ZDE9ajwrsU/C2snqGk8/zbvAJ/jr7KnavWoZVG7dg2/ad2H8uLOVeAsud7Rj7/ix03z4cpR6Uj86hZzDDc5SUiCSk10vWz4IKd08PqLif8rkO1d79A1NfzpNpeyrGglmWT1Gdupk1ERERERHRf1qD2tWeJOOWTZYrOHshIX2topLlUCotM5L1iBrLhRWYOOFPXPWrig4DR2HG4q04fvMOzv45FFXTEnVJuHL6LGIzv0QaxbcyqhZLT8tJxG3ctZluKOFhuGfJPBBDlVqoZDP1EqofytZvgAYNbH7qV4Cv+R7uJRjgYcz0Mg8kkTdwMyr9/pYb13DD5g1bW646KrkA1tDzOB+ZmlnQoEi5gLS1myDWRxif5jz6itVQUZf+em+5cQ0hNrHHhITgXpaBKXBxc7FJDpiRYE7/1BoehvAsEilPo13s7lejAWraJIitd0Nx1yY2693bKYkYAFCRt259lHHWgLYHMqFR354ISLmXmA/hl++n48f551Ghz2uomfasWXDx7MW0xI1iKI2yxdOzL1brk/Se7MbwZPWouLjCduCr2bazWMJxLyKLzpJ4DAu/mIaN4QVRt9tQfDnrTwSfCUXo0Xl41WY9vcRzp3D+IYuw5dQz6PgcWe/etquXxLAwZF48LSrUqmpXLxbPUqjXwOFZqFYAuBeGaL07R7MRERERERE9BYUK5nsKSTfVB34+NmtK3QpBaOqLbfQZnLqW+Vuu5eJaTB35Mb7fY5NSU1xRsm0ftCuRmizQIE/hQjA9LAZtNfR6tUralFIxH8Su/akrxQsidm3D4cTMT1WLdcdb7XzTKsp8YAM237F/tU46NxcD2nfC0KU3H2sqpZh3Y9mqGylTxJJwcfVqHEudHam4ov5r3VFOAyhevvDRpN7AitCQW0g9zHz2FC484dpXj0Mt3hV9mrinJc6Sjq3G6vMpgVhDsGLJTptpoI4U+AWWR/7U5rTcwY2bqQ1hwcWdwbieRRLk8dtFcOuHFjAqChRFj6pjjmdrsXu1YHcM71Us7TpJJ/biYNqGARac33cQ91KSIoprbQwd3OTh/dJJdFX7oE/11JFqSTjz3aeYc7se+vUqm75uH1T4+Pmk1ZeYb+JGalZH7uLMmTvZXn/s8WN4snrUFKuAwLSMkQWhIbfS2i7h4A7sicqio5lPYMn4jzDy1zM2I0o18KoQhN5N/dL6rv06apnLqWcww3N0fBf2RqaWJx77tu/JYp1FBT4vvoXuhVMDT8KZjX/jsl1jCm4ueRcvdXodP51mxo2IiIiIiOhpWL9pJzStWzYZVade4wcfaQ3D2X1Hce7CP1jx+860kUyqSzHUqlsIiTduINaUH74umbzQKZ7IE7MFP/91GWYA1rtncVlTDPnNx/Db6IlYcuYmolKyMqpnAOpVzwudyR/et9Zg6q8bsGXdbkR5+cPbYEHUzVPYMvsLTFx6FpGiQPVrhrEzPkLdPA/bwVRF3ho1oN+5FJuvxEEkEsf2nIPGW4c7Bxbg03F/4FJYfNpURY1fAKr6a6HmLQxfozsqNArEvU1rsP9WAiThHIL3xiBfUT/oE27j9Jaf8MEbo7Hdpx/mzh2E8m7ZeamNx5GF3+DPs8lv6Kp7YSgH5mLx7uMIXjQRn363G+EWAIoG/m2mYNHXLZFXAygmfyhH5mH5yRgIBNHnzyO2UBFoLqzAl+Pm4cjV+4hLKYOpaC3UK2KCztcTMWcO4tiBjVi45kTKgusa+FVojIoFPZDXGIZjB3dh3cK1OJmyGrvqVwGNK3pD454fXgmXcPDwMexasRA7Q6w27V4ERp0f8nr4onLtvDiybC3ORlkhSdexbelfOHpqD5Z/8xl+u+YOuReWso6XFqU6vIue1VxtEh2FkPDXPGy6ngggASE3k1C0iB7XNk/F5z8dRvjt8JRkgwr3UnVR098AF38/uGget10Ed3bMwv/+ugaLokPlVz5Fb5t4sqQYUapJA3ge+wtbzkUgKf4cjl7Pg8ASJtz9Zwbe+2wRzscIVM8qeOvnpfiisQ9UCGKuHcWhE3uwdt6mlISMAm2BqmhSJh88/FXcOHgIO1b/ik0Xk/uCoimAqk0D4K56I59nNqd8qj4oZtmJH9ZcTE4qWQUe7cfghzcq24yAUpHX+w5WzNuRnPS2huDMdQ8U972Pf378HFPWX8KdmJSUlMYPFRpXhKfqhvw+RifG8Lj1mEJfBHnvLMeCf+7CAkHktTswlciPpHOrMX7cQlwIC8P91O8S3/JoVMkbWvf88NGcwKKv/sDfW9fjSJIv8nnokHj/Go6sm4rRUzfhSqxA0RZGl0n/w8BKHg8s7+M9g3mg3syiH5R2g+KdD54GL/vnKP4s9hxLgrcpEsf/HIPP5hzH/diElASfCq8SVVHEoMC7WF64GEuiQQ1g1+oduBZrRdL1f7DrljeK+rsgKew8dv3+OQZ8uByW9t9h/md14K0+oF+W0uJOwiO0OxEREREREWXqp19+A6ZOGi0PFb1QOhkhQFY/RnlpfmTW5yfdlM0Te0rd4j5i1OnFNU8pqdPlQ5m3P1jGVtc5XMsg7X++J0lX/5JvhveVl5vWkLJF8oiHUSuqohGDm58UrdBIOg+eLOsvxj08dlsx52Tl2D7SJDC/eBi0onXNJ+WaD5QfdsyRIDfFPg5toIzYn2hz7nlZP3WIdKpfTgp4uYhOoxWDez4pWb219B29UI6EWx8hkHD55UVj2r3UAm/JyiO/ybDW5SWfq060Ri8pVKmlvDFpg1yOtz/Tem+PzHijiQTkcRGdzkV8ilWT9oNnys6jM6WVwaFddHXk6zNn5Zv6+kzbzdDyB7m2410pqcmkTVU/6bcuQRLW9RM/NbM210vdSefFkhJXwrVNMvnN1lK5sLeYtFpxyRcord5ZIIfXDpGimvS2bT37tjjWVNLNzfJVr/pSwscoWo1BvApXkXbv/CT7d4+TmjqH+xrayk9hNld45HaJkTV984oKCLSVZdSRRHkklntyZPGXMqB9bQnw9xSTTit6N18pUvEFCXpvhmy6HGtzcKLs/aiMaDOpe8WthyyLWCm9PZVM6lYrZT7aK48SmfXuQuniraa0nb/0XZ3Z85ggF1d8Ki9XKyweeq0Y3P2lbONeMnrZMVk/tJho7GJQxOe11RKfyVWeLIYUj1SPtkW4JCs/6yzVi3iKQaMVk08xqdn5E1l6/C95p7jGvh4Vb3l1VbxI4hlZ9sVg6fViY6kaUEh83QyiVRXRGD0kX4kq0rTH+/L99hAxZ7ecj/oMnovPsh9AGyAf7ElvacfnyORbShq8Okk2/DHI5jlK+d7I94b8lWBTNde3yw8fdJcXKhYWH1e9aDR6cfMrJpWbviIfzdktoUmpR2bdLx+n3YmIiIiIiCijr776WpSpk0bL0OEjnZDDo+y7j3kd8qPPquQprmqBgdh4aQaaZroLwPMtcftQlG46PWXHRANaz76Gtf0zX+T9aZBbC9Cl4qtYdlfg0vAbHNky7MEL5xMRERERERERPaKvv570FNZ0I3pWxJ/CD2+8hz/vWqG41cJHU95iwo2IiIiIiIiIcoSa1e6hlDMk6gqO7D+My/dttya8gzMHD+DIlchc2YE0R0gUrh49gANnbsOcVihBxOUjOHDkCiJzoaBxh3/FjL9DAa+aGLZoOT6p/rS2OiAiIiIiIiKi/xptbgfwX5P4z5do3fpH3LLJuVnvLMH/1V2GPK+vxfVZrfCvmGWauA8T2rTAzBu22yiasXtsC9Se9QbWXf0RLZ9yQU11PscfC4rjQuVeaF+SCTciIiIiIiIiyjkpa2nT06Jv8QNuWn7I7TBynr4pZoRYMCO347BjQLlOb6BcbodBRERERERERP96qnB+KRERERERERERkVNxTTciIiIiIiIiIiIn40g3IiIiIiIiIiIiJzIY9Ey6EREREREREREROZsqYn34UURERERERERERJRtqtXKkW5ERERERERERETOpFo5vZSIiIiIiIiIiMipVKuV00uJiIiIiIiIiIicJSIyCurNG6G5HQcREREREREREdG/hqeHO9TS5arkdhxERERERERERET/KpxeSkRERERERERE5GRqbgdARERERERERET0b8OkGxERERERERERkZMx6UZERERERERERORkTLoRERERERERERE5GZNuRERERERERERETqaGhYXldgxERERERERERET/KqrRaMztGIiIiIiIiIiIiP5VVFdX19yOgejJSDzuh95C6P14yCOemhQdhtDQMEQn5UhkRERERERERPQfxTXd6BEJ7m8ZhgrebvAs9zY23HvUNFcOiP0T/YvlR7G+yxDzSCcm4ejExihUqBHGH2HWjYiIiIiIiIic55lPulmOj0XNSiOwnzmRZ4L15jIMeecQgtacwl+9TmD4oD8QYk39NA6LupqgGNvh52chGUdERERERERElEu0uR1A5gRhi99AxyUl8WHvOEAScPXvSZg67ghaLp6HV/2VR79iQjzMBiMMORDtf4mavzPmHemc/I96W3Asd8NJ5todS+O6P8aJWlQbcxyJY5weERERERERERH9xz2jI90U+HYYjbENL2HM61/j0KnpGPDxMVT7fCy6PVLCLQn3TqzC1MHtUL78YGw251jAOSAGq/rkhcbYHDNDrAAE9+Z3hLvGE50XhkMgiDz4PfrWKwpPowv8yrTAu4vPIwEALKfwZQ09tEWHYFsiYN4yCIU0etSeeAYWAIg9iln96qGYlxF6F28UrtgGX+/LzlBCQcT+mehbrxi8jEZ4Fa2LPt/tQ4QAsX90gUlxQdCSeCBhLfr6qlA0edB/fXKlW29vxYRu1VHQ3QiTbyk0GTQfJ2NTLvvY8dzHvA4mKIoCRVFgevk3RNt9Ho2jcweiSWk/uBg9kL9CW3z+910IgKS9H6KMLvk8RVcenxzgUEoiIiIiIiIicp5nNOkGmMMu4sSxE7iteMBk9ITm3ikcP34BdxKycXLCzf9v796jtarrPI5/n30456DAAUEQFW94LVQwNVIQQ428kIkXvI2pmI1Tk8qU1mSWlaZNaygmS7KVmJMMKkbJNGTlBUZNZNRCnWLQREsRUJSLXOTw7PkDLzWj4th31nbt9XqtxT9snvN8zjn89V6/vZ+4b+plMe79u8b2ex8Tn5+xIvY9fUwMeoee63t93WLE6JHRsX5u3HH3yohYG/fe8atY3XVYHHlIr4jlP4tPHfO3cd38rWLM+I/HiJZ7YuJpx8dl92+qLJbxzPUXxnk/WBADz5kUUyZPiPNHbRnrVjU38QEh1/cAABkGSURBVLqIctktce6HPxn//MSuMe7Sy+KcvRbH1POOjU/NXB7tQz8RV0++Oj6+f2tE6+A468rJMfmab8W4vbpENJ+MyWceGxfdsjz2P/er8aVTt4v53x0Xx395Tqz7C/ZEbB7Dzrs6Jk86J/Zt/d/f5/KZfxcf+th3Y065f4y74Lw4efCL8Zt5y6IZES0Dx8YV3/9+XPKhbaPlLbwTAAAAwFv1oxt/9E69vTRi3fy74pEdLoqf33J/nHLW6vjG9JHxqwl3x3+uHhnbtb/xabcNj/xTHPGBC+O25VvFAcecFt+89fQYe8iu0fFKXiyXxU/O/3BcPmd9REQ0uh8RX5/5xRjeGhHRjMevHRenTfpddEZEtAyIUyZNjXP32vhj6vz1N+KEj98Qi5oREV1i0CemxPdO235juVw/K77wwc/Gz1dvfJZZ24GfjxkTRkfPTb7nG+sYeVSM2PzmuPuOubFuTPe489+XRevQo2JU30asmXF93PzHljjgH2+Ia8bvFJ1HN2LPg74RU294IC4e0vNNvmoZGzrXRzPWxbJFz0U5+ugYd8WZscUmtkRErPzl9TF9UZcY9vWJcfFZ20Qc0xr/sef4+PGNd8WV1x4Vp53xvmj/6bnxnXnbxvCTT48zem/8PTX/OCN++MsXovtRE+JbFxwTPTYMj1V3DY+v3jwtHvzK/rHd29wT0RY7H3pa7Py+1phx/qR45M+urY7bf3hT/KEYEpdMnxFfePl3uGHDho2Rbct9Y8xHBscOCybEpTM9fw4AAADIs/uBB79zo1uPkX8f3x4ZseGxp2K33ddG7x1HxQXfHrXJ15Wrl8TTy9ZH9x3eHYOH7B17v2u76PFn5/nWx+LfzY05czYemWv03C2ef/VQVRlrnnoo7pvzQKyPiGh5NoatfC3IlCsWxoP3zYknNkREtEY5Zk28erW5LB6dOyfmrNr4N+29l8T6MiIam3rPN9bo84E46sC2+LfZd8a8/+oRsxY2Yp+zR8U2RRlLn1kSq6Nr7LTzNlFEROuOu8QOXZoxd9GSaMabRbcitjn50rj0l2fH5f9yQYy97oJoH3BYXHLjtPjMAR3xxjmzGc8veibWleti9qcHRe9Pv3alffEzsbKM6PoGL24uWRRLmmWsmH5mbD/9zNe+v45FsbhZxNC3tWcTyuXxzOI1Ee17xF67vfbfvKXFuTYAAADg/9egAX3eudHtFS07nx3X3/TW/32X/S+NuQsOjxu/NykmTTwjrvpc19j90BPiI2f+Tfz12CHRu7FVfOzWtfGx13+3ePdF98dLF73+124dMTEWdk58/YvtY2LKymZMeb1rb/qeb6KxVYw6cr9oufCOuHlKt3goBsVnDx8YLdGIjv79YvNYGwt//3Q0Y6fofOKxeHJDEX3794siiiiKiLKzMzrLiOaqVbH6Tw5zNXodEJ+++eEYv/LJuH/mN+O8j06MS/9hRpwz/dTo9YZjiujVr2+0NbrG0IumxZcP7fbald67R69GRMTLz0iLMso/eb9iy36xZVFE79Ffi6mf2i9eOcTWaNkqBrVFNNrfzp5N/ex6xlb9ukasmx+PPNoZY16+t7jZbEZRvGPvqgYAAABqYNI1U9/50e3t2Gy74XH6l4fH6RcvjV/fMjmumnR1XPHJ9TF4zDVxZFvV6/4vitju8KNi8IUXx1VXtkbnwE/GEe/aeFJrs4NPjjHbTo1rLz05zlpyUKy85ap4tHh3fO7E90Rr8WJsP6A9ygdvjx9877qY/ZOZsfzVCFbGczedH+Pu6BtHDNsj+ry4LjrLiJa2tk0+26zjsJNidL+fxPTrvxU/7nZkDOzyQjx+/23x1PDJMXzvjXu37Ns7GusfiClfuypiUO/Y7bCxMWzA6DhxxMVx152TY9KgMt6/dTOWLpgTP18zNm49aI+3vad8YV786y0PxHNrNp4+3PDk7Lj+2pdisz77xNGj945DTj0uBtw4OS4/9th47tT9ovX3s+OxId+JG8/fJZ6aNSXuePylWPibF6Isy5g347q49uG22On9p8TBO4hyAAAAwNt32olHR0yYMKGsvw3l8oULy+eaVe94G9b/uvzi3l3KiJZyx3NnletevdAsX7jvyvIjQweUPdrayy12OaQ8d+r8cu3LV1fcc1l52Hbdyq699yxPPOOD5VZFa/neK35XdpZlufLOr5RH7rND2adbW9mlvVe547CPlpMfWfMWxjTLZXO+XZ41YpeyT9cuZZeuvcudhh5XXnb7c+UrP9q1D00qTxqyddm9tSgbxZbluJkbF3cuuq28/KSh5Q692ssurd3KvrsdVJ5y5dxyzV+wp/Ohr5T7tEYZ8ed/Wod8qZzXWZZlc0X5wNVnlyMGblG2t3Ur++1xWPm5ny0tm+Xa8uaTupWN//G6aGxWjp22dpPvCwAAAPBmJk6cWDYmTJhQjh8/vsL2BwAAAAD18VfnXRzuowMAAACARIt/c7foBgAAAACZPnTsMaIbAAAAAGQT3QAAAAAgmegGAAAAAMlENwAAAABIJroBAAAAQDLRDQAAAACSiW4AAAAAkEx0AwAAAIBkohsAAAAAJBPdAAAAACCZ6AYAAAAAyUQ3AAAAAEgmugEAAABAMtENAAAAAJIVL774YtUbAAAAAKBWirVr11a9AQAAAABqpejTp0/VGwAAAACgVjzTDQAAAACSiW4AAAAAkEx0AwAAAIBkohsAAAAAJBPdAAAAACCZ6AYAAAAAyYrFixdXvQEAAAAAaqXo379/1RsAAAAAoFbcXgoAAAAAyUQ3AAAAAEgmugEAAABAMtENAAAAAJKJbgAAAACQTHQDAAAAgGSiGwAAAAAkE90AAAAAIJnoBgAAAADJRDcAAAAASCa6AQAAAEAy0Q0AAAAAkoluAAAAAJBMdAMAAACAZKIbAAAAACQryqoXAAAAAEDNOOkGAAAAAMlENwAAAABIVtx4ww1VbwAAAACAWik+ePjhVW8AAAAAgFopevbsWfUGAAAAAKgVz3QDAAAAgGSiGwAAAAAkE90AAAAAIFmx4OklVW8AAAAAgFopHr5nVtUbAAAAAKBWimOPP6HqDQAAAABQK57pBgAAAADJRDcAAAAASCa6AQAAAEAy0Q0AAAAAkoluAAAAAJBMdAMAAACAZKIbAAAAACQT3QAAAAAgmegGAAAAAMlENwAAAABIJroBAAAAQDLRDQAAAACSiW4AAAAAkEx0AwAAAIBkohsAAAAAJBPdAAAAACCZ6AYAAAAAyUQ3AAAAAEgmugEAAABAMtENAAAAAJKJbgAAAACQTHQDAAAAgGSiGwAAAAAkE90AAAAAIJnoBgAAAADJRDcAAAAASCa6AQAAAEAy0Q0AAAAAkoluAAAAAJBMdAMAAACAZKIbAAAAACQT3QAAAAAgmegGAAAAAMlENwAAAABIJroBAAAAQDLRDQAAAACSiW4AAAAAkEx0AwAAAIBkohsAAAAAJBPdAAAAACCZ6AYAAAAAyUQ3AAAAAEgmugEAAABAMtENAAAAAJKJbgAAAACQTHQDAAAAgGSiGwAAAAAkE90AAAAAIJnoBgAAAADJRDcAAAAASCa6AQAAAEAy0Q0AAAAAkoluAAAAAJBMdAMAAACAZKIbAAAAACQT3QAAAAAgmegGAAAAAMlENwAAAABIJroBAAAAQDLRDQAAAACSiW4AAAAAkEx0AwAAAIBkohsAAAAAJBPdAAAAACCZ6AYAAAAAyUQ3AAAAAEgmugEAAABAsmLatB9VvQEAAAAAaqUYMWJo1RsAAAAAoFaKfv22rXoDAAAAANSKZ7oBAAAAQDLRDQAAAACSiW4AAAAAkKxYsuTpqjcAAAAAQK0Us2ffW/UGAAAAAKiV4vjjj616AwAAAADUime6AQAAAEAy0Q0AAAAAkoluAAAAAJBMdAMAAACAZKIbAAAAACQT3QAAAAAgmegGAAAAAMlENwAAAABIJroBAAAAQDLRDQAAAACSiW4AAAAAkEx0AwAAAIBkohsAAAAAJBPdAAAAACCZ6AYAAAAAyUQ3AAAAAEgmugEAAABAMtENAAAAAJKJbgAAAACQTHQDAAAAgGSiGwAAAAAkE90AAAAAIJnoBgAAAADJRDcAAAAASCa6AQAAAEAy0Q0AAAAAkoluAAAAAJBMdAMAAACAZKIbAAAAACQrbr7l1qo3AAAAAECtFPtu36XqDQAAAABQK8WOew2qegMAAAAA1EoRRdeqNwAAAABArRQ+SwEAAAAAciluAAAAAJBMdAMAAACAZKIbAAAAACQrotFR9QYAAAAAqBUn3QAAAAAgmegGAAAAAMlENwAAAABIJroBAAAAQDLRDQAAAACSiW4AAAAAkEx0AwAAAIBkohsAAAAAJBPdAAAAACCZ6AYAAAAAyUQ3AAAAAEgmugEAAABAMtENAAAAAJKJbgAAAACQTHQDAAAAgGSiGwAAAAAkE90AAAAAIJnoBgAAAADJRDcAAAAASCa6AQAAAEAy0Q0AAAAAEk26ZqroBgAAAACZzhl3kugGAAAAANlENwAAAABIJroBAAAAQDLRDQAAAACSiW4AAAAAkEx0AwAAAIBkohsAAAAAJCtu/+n0qjcAAAAAQK0UrQOHVr0BAAAAAGql6Ojbr+oNAAAAAFArxYJZt1a9AQAAAABqpTh82O5VbwAAAACAWim699+l6g0AAAAAUCvF0mXPV70BAAAAAGqlmH3bL6reAAAAAAC1Uhx3wtiqNwAAAABArRRVDwAAAACAuhHdAAAAACCZ6AYAAAAAyUQ3AAAAAEgmugEAAABAMtENAAAAAJKJbgAAAACQTHQDAAAAgGSiGwAAAAAkE90AAAAAIJnoBgAAAADJRDcAAAAASCa6AQAAAEAy0Q0AAAAAkoluAAAAAJBMdAMAAACAZKIbAAAAACQT3QAAAAAgmegGAAAAAMlENwAAAABIJroBAAAAQDLRDQAAAACSiW4AAAAAkEx0AwAAAIBkohsAAAAAJBPdAAAAACCZ6AYAAAAAyUQ3AAAAAEgmugEAAABAsuK2+auq3gAAAAAAteKkGwAAAAAkE90AAAAAIJnoBgAAAADJimazWfUGAAAAAKiVYvVKH6QAAAAAAJmK9X+YV/UGAAAAAKiV4r0DN6t6AwAAAADUSrH9PgdXvQEAAAAAasWnlwIAAABAMtENAAAAAJKJbgAAAACQTHQDAAAAgGSiGwAAAAAkE90AAAAAIJnoBgAAAADJRDcAAAAASCa6AQAAAEAy0Q0AAAAAkoluAAAAAJBMdAMAAACAZKIbAAAAACQT3QAAAAAgmegGAAAAAMlENwAAAABIJroBAAAAQDLRDQAAAACSiW4AAAAAkEx0AwAAAIBkohsAAAAAJBPdAAAAACCZ6AYAAAAAyUQ3AAAAAEgmugEAAABAMtENAAAAAJKJbgAAAACQTHQDAAAAgGSiGwAAAAAkK1Y+dnfVGwAAAACgVoqufXauegMAAAAA1ErR2qt/1RsAAAAAoFaKVU89VPUGAAAAAKiV4lf3Lqh6AwAAAADUSrG87Fv1BgAAAAColaJHPFv1BgAAAAColeK97xlQ9QYAAAAAqJVii4H7V70BAAAAAGqlqHoAAAAAANTJs6XoBgAAAACp7l0uugEAAABAqkWrStENAAAAALKJbgAAAACQaNvuDdENAAAAADK9r6eTbgAAAACQqndDdAMAAACAdKIbAAAAACQT3QAAAAAgmegGAAAAAMlENwAAAABIJroBAAAAQDLRDQAAAACSiW4AAAAAkEx0AwAAAIBkohsAAAAAJBPdAAAAACCZ6AYAAAAAyUQ3AAAAAEgmugEAAABAMtENAAAAAJKJbgAAAACQTHQDAAAAgEQL14tuAAAAAJDqp080RTcAAAAAyLRuZSm6AQAAAECmLhtENwAAAABIJ7oBAAAAQLJi2k3Tqt4AAAAAALVSjDzs0Ko3AAAAAEBt9GhtRNFniy2q3gEAAAAAtXHm4JYo7pj726p3AAAAAECtFL3WPF71BgAAAACoja/dtS6KfUaMqnoHAAAAANTGZ4a3R/H8s0uq3gEAAAAAtVL8YtZ9VW8AAAAAgFopxh53TNUbAAAAAKBWiqoHAAAAAEDdiG4AAAAAkEx0AwAAAIBkohsAAAAAJBPdAAAAACCZ6AYAAAAAyUQ3AAAAAEgmugEAAABAMtENAAAAAJKJbgAAAACQTHQDAAAAgGSiGwAAAAAkE90AAAAAIJnoBgAAAADJRDcAAAAASCa6AQAAAEAy0Q0AAAAAkoluAAAAAJBMdAMAAACAZKIbAAAAACQT3QAAAAAgmegGAAAAAMlENwAAAABIJroBAAAAQDLRDQAAAACSiW4AAAAAkEx0AwAAAIBkxaKH76p6AwAAAADUSnHP/FVVbwAAAACAWik222W/qjcAAAAAQK0UW/bbouoNAAAAAFArxWZdfZYCAAAAAGRS3AAAAAAgWbF2bbPqDQAAAABQK8XSJS9UvQEAAAAAaqVY8+j9VW8AAAAAgFopDtx986o3AAAAAECtFFvvObzqDQAAAABQKz69FAAAAACSiW4AAAAAkEx0AwAAAIBkohsAAAAAJBPdAAAAACCZ6AYAAAAAyUQ3AAAAAEgmugEAAABAMtENAAAAAJKJbgAAAACQTHQDAAAAgGSiGwAAAAAkE90AAAAAIJnoBgAAAADJRDcAAAAASCa6AQAAAEAy0Q0AAAAAkhUrVqyoegMAAAAA1ErR0dFR9QYAAAAAqBW3lwIAAABAopkPvyS6AQAAAECm3gNaRTcAAAAAyDS0V0N0AwAAAIBsohsAAAAAJBPdAAAAACCZ6AYAAAAAyUQ3AAAAAEgmugEAAABAMtENAAAAAJKJbgAAAACQTHQDAAAAgGSiGwAAAAAkE90AAAAAIJnoBgAAAADJRDcAAAAASCa6AQAAAEAy0Q0AAAAAkoluAAAAAJCs+OODs6reAAAAAAC1UixfurTqDQAAAABQK24vBQAAAIBkohsAAAAAJBPdAAAAACCZ6AYAAAAAyUQ3AAAAAEgmugEAAABAsmLQqOOr3gAAAAAAteKkGwAAAAAkE90AAAAAIJnoBgAAAADJRDcAAAAASCa6AQAAAEAy0Q0AAAAAkoluAAAAAJBMdAMAAACAZKIbAAAAACQT3QAAAAAgmegGAAAAAMlENwAAAABIJroBAAAAQDLRDQAAAACSiW4AAAAAkEx0AwAAAIBkohsAAAAAJBPdAAAAACCZ6AYAAAAAyUQ3AAAAAEgmugEAAABAMtENAAAAAJKJbgAAAACQTHQDAAAAgGSiGwAAAAAkE90AAAAAIJnoBgAAAADJRDcAAAAASCa6AQAAAECyYtqtD1e9AQAAAABqpShWLat6AwAAAADUStEnRDcAAAAAyFRs3auz6g0AAAAAUCtF/216Vr0BAAAAAGql6LHtgKo3AAAAAECtFI0eohsAAAAAZCqi0b3qDQAAAABQK0VEo+oNAAAAAFArRdUDAAAAAKBuRDcAAAAASCa6AQAAAEAy0Q0AAAAAkoluAAAAAJBMdAMAAACAZKIbAAAAACS687cviW4AAAAAkKm1XxfRDQAAAAAyDetTiG4AAAAAkE10AwAAAIBkohsAAAAAJBPdAAAAACCZ6AYAAAAAyUQ3AAAAAEgmugEAAABAMtENAAAAAJIVK1asqHoDAAAAANRK0dHRUfUGAAAAAKgVt5cCAAAAQDLRDQAAAACSiW4AAAAAkEx0AwAAAIBkohsAAAAAJBPdAAAAACCZ6AYAAAAAyUQ3AAAAAEgmugEAAABAMtENAAAAABLdvVp0AwAAAIBUL3aKbgAAAACQ6t5560Q3AAAAAMg0ZI820Q0AAAAAMnVta4huAAAAAJBNdAMAAACAZKIbAAAAACQrHps1reoNAAAAAFAbL6wpnXQDAAAAgExP/f4l0Q0AAAAAMo0/oF10AwAAAIBsohsAAAAAJBPdAAAAACCZ6AYAAAAAyUQ3AAAAAEgmugEAAABAMtENAAAAAJIVOx98fNUbAAAAAKBWnHQDAAAAgGSiGwAAAAAkE90AAAAAIJnoBgAAAADJRDcAAAAASCa6AQAAAEAy0Q0AAAAAkoluAAAAAJBMdAMAAACAZKIbAAAAACQT3QAAAAAgmegGAAAAAMlENwAAAABIJroBAAAAQDLRDQAAAACSiW4AAAAAkEx0AwAAAIBkohsAAAAAJBPdAAAAACCZ6AYAAAAAyUQ3AAAAAEgmugEAAABAMtENAAAAAJKJbgAAAACQTHQDAAAAgGSiGwAAAAAkE90AAAAAIJnoBgAAAADJRDcAAAAASCa6AQAAAEAy0Q0AAAAAkoluAAAAAJBo1vz1ohsAAAAAZPptoxDdAAAAACDTKbu2iG4AAAAAkKlHwzPdAAAAACCd6AYAAAAAiVaUohsAAAAApJqyYIPoBgAAAACZ9miKbgAAAACQauQebaIbAAAAAGQT3QAAAAAgmegGAAAAAMlENwAAAABIJroBAAAAQDLRDQAAAACSiW4AAAAAkEx0AwAAAIBkohsAAAAAJBPdAAAAACCZ6AYAAAAAyUQ3AAAAAEj23zqZlPIYYUm0AAAAAElFTkSuQmCC;clipPath=inset(0% 0% 7.54% 0%);" vertex="1" parent="1">
          <mxGeometry x="190" y="140" width="1245" height="686.825" as="geometry" />
        </mxCell>
        <mxCell id="dVX6cVtJZ1NgR8-LR__A-2" value="&lt;font style=&quot;font-size: 14px;&quot;&gt;POPUP&lt;br&gt;&lt;br&gt;&lt;br&gt;&lt;br&gt;&lt;br&gt;&lt;/font&gt;" style="rounded=1;whiteSpace=wrap;html=1;fillColor=#FFF4C3;" vertex="1" parent="1">
          <mxGeometry x="1170" y="220" width="190" height="120" as="geometry" />
        </mxCell>
        <mxCell id="dVX6cVtJZ1NgR8-LR__A-3" value="&lt;font style=&quot;font-size: 14px;&quot;&gt;CONTENT-SCRIPT&lt;br&gt;&lt;br&gt;&lt;br&gt;&lt;br&gt;&lt;br&gt;&lt;br&gt;&lt;br&gt;&lt;br&gt;&lt;br&gt;&lt;br&gt;&lt;/font&gt;" style="rounded=0;whiteSpace=wrap;html=1;fillColor=#FFF4C3;" vertex="1" parent="1">
          <mxGeometry x="270" y="490" width="390" height="210" as="geometry" />
        </mxCell>
        <mxCell id="dVX6cVtJZ1NgR8-LR__A-4" value="&lt;font style=&quot;font-size: 14px;&quot;&gt;BACKGROUND SCRIPT&lt;br&gt;&lt;br&gt;&lt;br&gt;&lt;br&gt;&lt;br&gt;&lt;br&gt;&lt;br&gt;&lt;br&gt;&lt;br&gt;&lt;br&gt;&lt;/font&gt;" style="rounded=0;whiteSpace=wrap;html=1;fillColor=#FFF4C3;" vertex="1" parent="1">
          <mxGeometry x="970" y="490" width="390" height="210" as="geometry" />
        </mxCell>
        <mxCell id="dVX6cVtJZ1NgR8-LR__A-18" style="edgeStyle=orthogonalEdgeStyle;rounded=0;orthogonalLoop=1;jettySize=auto;html=1;exitX=0;exitY=0.5;exitDx=0;exitDy=0;entryX=0;entryY=0.5;entryDx=0;entryDy=0;entryPerimeter=0;" edge="1" parent="1" source="dVX6cVtJZ1NgR8-LR__A-5" target="dVX6cVtJZ1NgR8-LR__A-16">
          <mxGeometry relative="1" as="geometry">
            <Array as="points">
              <mxPoint x="220" y="573" />
              <mxPoint x="220" y="750" />
            </Array>
          </mxGeometry>
        </mxCell>
        <mxCell id="dVX6cVtJZ1NgR8-LR__A-5" value="&lt;div style=&quot;background-color: rgb(253, 246, 227); font-family: &amp;quot;Fira Code&amp;quot;, &amp;quot;Droid Sans Mono&amp;quot;, &amp;quot;monospace&amp;quot;, monospace; line-height: 16px;&quot;&gt;translateToDino()&lt;/div&gt;" style="rounded=1;whiteSpace=wrap;html=1;fillColor=#B9E0A5;fontColor=default;" vertex="1" parent="1">
          <mxGeometry x="280" y="555" width="250" height="35" as="geometry" />
        </mxCell>
        <mxCell id="dVX6cVtJZ1NgR8-LR__A-6" value="&lt;div style=&quot;background-color: rgb(253, 246, 227); font-family: &amp;quot;Fira Code&amp;quot;, &amp;quot;Droid Sans Mono&amp;quot;, &amp;quot;monospace&amp;quot;, monospace; line-height: 16px;&quot;&gt;translateToDinos()&lt;/div&gt;" style="rounded=1;whiteSpace=wrap;html=1;fillColor=#99CCFF;fontColor=default;" vertex="1" parent="1">
          <mxGeometry x="280" y="600" width="250" height="35" as="geometry" />
        </mxCell>
        <mxCell id="dVX6cVtJZ1NgR8-LR__A-7" value="&lt;div style=&quot;background-color: rgb(253, 246, 227); font-family: &amp;quot;Fira Code&amp;quot;, &amp;quot;Droid Sans Mono&amp;quot;, &amp;quot;monospace&amp;quot;, monospace; line-height: 16px;&quot;&gt;&lt;div style=&quot;line-height: 16px;&quot;&gt;getRandomTitle()&lt;/div&gt;&lt;/div&gt;" style="rounded=1;whiteSpace=wrap;html=1;fillColor=#99CCFF;fontColor=default;" vertex="1" parent="1">
          <mxGeometry x="980" y="600" width="250" height="35" as="geometry" />
        </mxCell>
        <mxCell id="dVX6cVtJZ1NgR8-LR__A-8" value="" style="shape=flexArrow;endArrow=classic;html=1;rounded=0;exitX=0;exitY=0.5;exitDx=0;exitDy=0;entryX=1;entryY=0.25;entryDx=0;entryDy=0;fillColor=#B9E0A5;" edge="1" parent="1" source="dVX6cVtJZ1NgR8-LR__A-10" target="dVX6cVtJZ1NgR8-LR__A-5">
          <mxGeometry width="50" height="50" relative="1" as="geometry">
            <mxPoint x="830" y="670" as="sourcePoint" />
            <mxPoint x="880" y="620" as="targetPoint" />
          </mxGeometry>
        </mxCell>
        <mxCell id="dVX6cVtJZ1NgR8-LR__A-9" value="&lt;div style=&quot;background-color: rgb(253, 246, 227); font-family: &amp;quot;Fira Code&amp;quot;, &amp;quot;Droid Sans Mono&amp;quot;, &amp;quot;monospace&amp;quot;, monospace; font-size: 12px; line-height: 16px;&quot;&gt;do_translate_text&lt;/div&gt;" style="edgeLabel;html=1;align=center;verticalAlign=middle;resizable=0;points=[];fontColor=default;" vertex="1" connectable="0" parent="dVX6cVtJZ1NgR8-LR__A-8">
          <mxGeometry x="-0.0878" y="-3" relative="1" as="geometry">
            <mxPoint x="67" y="-33" as="offset" />
          </mxGeometry>
        </mxCell>
        <mxCell id="dVX6cVtJZ1NgR8-LR__A-10" value="Texte" style="rounded=1;whiteSpace=wrap;html=1;fillColor=#B9E0A5;" vertex="1" parent="1">
          <mxGeometry x="1181" y="290" width="79" height="40" as="geometry" />
        </mxCell>
        <mxCell id="dVX6cVtJZ1NgR8-LR__A-11" value="Titre" style="rounded=1;whiteSpace=wrap;html=1;fillColor=#99CCFF;" vertex="1" parent="1">
          <mxGeometry x="1270" y="290" width="79" height="40" as="geometry" />
        </mxCell>
        <mxCell id="dVX6cVtJZ1NgR8-LR__A-12" value="" style="shape=flexArrow;endArrow=classic;html=1;rounded=0;exitX=0;exitY=0.75;exitDx=0;exitDy=0;entryX=1;entryY=0.25;entryDx=0;entryDy=0;fillColor=#99CCFF;" edge="1" parent="1" source="dVX6cVtJZ1NgR8-LR__A-11" target="dVX6cVtJZ1NgR8-LR__A-6">
          <mxGeometry width="50" height="50" relative="1" as="geometry">
            <mxPoint x="1191" y="320" as="sourcePoint" />
            <mxPoint x="540" y="574" as="targetPoint" />
          </mxGeometry>
        </mxCell>
        <mxCell id="dVX6cVtJZ1NgR8-LR__A-13" value="&lt;div style=&quot;background-color: rgb(253, 246, 227); font-family: &amp;quot;Fira Code&amp;quot;, &amp;quot;Droid Sans Mono&amp;quot;, &amp;quot;monospace&amp;quot;, monospace; font-size: 12px; line-height: 16px;&quot;&gt;do_translate_title&lt;/div&gt;" style="edgeLabel;html=1;align=center;verticalAlign=middle;resizable=0;points=[];fontColor=default;" vertex="1" connectable="0" parent="dVX6cVtJZ1NgR8-LR__A-12">
          <mxGeometry x="-0.0878" y="-3" relative="1" as="geometry">
            <mxPoint x="173" y="-53" as="offset" />
          </mxGeometry>
        </mxCell>
        <mxCell id="dVX6cVtJZ1NgR8-LR__A-14" value="" style="shape=flexArrow;endArrow=classic;startArrow=classic;html=1;rounded=0;exitX=1;exitY=0.75;exitDx=0;exitDy=0;entryX=0;entryY=0.75;entryDx=0;entryDy=0;fillColor=#99CCFF;" edge="1" parent="1" source="dVX6cVtJZ1NgR8-LR__A-6" target="dVX6cVtJZ1NgR8-LR__A-7">
          <mxGeometry width="100" height="100" relative="1" as="geometry">
            <mxPoint x="810" y="690" as="sourcePoint" />
            <mxPoint x="910" y="590" as="targetPoint" />
          </mxGeometry>
        </mxCell>
        <mxCell id="dVX6cVtJZ1NgR8-LR__A-15" value="&lt;div style=&quot;background-color: rgb(253, 246, 227); font-family: &amp;quot;Fira Code&amp;quot;, &amp;quot;Droid Sans Mono&amp;quot;, &amp;quot;monospace&amp;quot;, monospace; font-size: 12px; line-height: 16px;&quot;&gt;translate_to_dinos&lt;/div&gt;" style="edgeLabel;html=1;align=center;verticalAlign=middle;resizable=0;points=[];fontColor=default;" vertex="1" connectable="0" parent="dVX6cVtJZ1NgR8-LR__A-14">
          <mxGeometry x="0.0756" relative="1" as="geometry">
            <mxPoint x="-12" y="-16" as="offset" />
          </mxGeometry>
        </mxCell>
        <mxCell id="dVX6cVtJZ1NgR8-LR__A-16" value="Local storage" style="shape=cylinder3;whiteSpace=wrap;html=1;boundedLbl=1;backgroundOutline=1;size=15;" vertex="1" parent="1">
          <mxGeometry x="680" y="710" width="162.5" height="80" as="geometry" />
        </mxCell>
        <mxCell id="dVX6cVtJZ1NgR8-LR__A-21" style="edgeStyle=orthogonalEdgeStyle;rounded=0;orthogonalLoop=1;jettySize=auto;html=1;exitX=1;exitY=0.5;exitDx=0;exitDy=0;entryX=1;entryY=0.5;entryDx=0;entryDy=0;entryPerimeter=0;" edge="1" parent="1" source="dVX6cVtJZ1NgR8-LR__A-7" target="dVX6cVtJZ1NgR8-LR__A-16">
          <mxGeometry relative="1" as="geometry">
            <mxPoint x="290" y="583" as="sourcePoint" />
            <mxPoint x="690" y="800" as="targetPoint" />
            <Array as="points">
              <mxPoint x="1320" y="618" />
              <mxPoint x="1320" y="750" />
            </Array>
          </mxGeometry>
        </mxCell>
      </root>
    </mxGraphModel>
  </diagram>
</mxfile>
